<?xml version="1.0" encoding="utf-8"?>
<!-- Generator: Adobe Illustrator 16.0.0, SVG Export Plug-In . SVG Version: 6.00 Build 0)  -->
<!DOCTYPE svg PUBLIC "-//W3C//DTD SVG 1.1//EN" "http://www.w3.org/Graphics/SVG/1.1/DTD/svg11.dtd">
<svg version="1.1" xmlns="http://www.w3.org/2000/svg" xmlns:xlink="http://www.w3.org/1999/xlink" x="0px" y="0px"
	 width="184.328px" height="242.867px" viewBox="0 0 184.328 242.867" enable-background="new 0 0 184.328 242.867"
	 xml:space="preserve">
<g id="Leaves">
	<path fill-rule="evenodd" clip-rule="evenodd" fill="#6DBA46" d="M92.223,59.35c-10.412-5.095-21.465-8.597-32.427-12.133
		c-6.757-2.18-9.749-5.496-10.499-12.585c-1.082-10.219-3.281-20.329-5.242-30.44c-0.761-3.922-0.356-5.12,3.936-3.472
		c12.505,4.8,25.137,9.271,37.719,13.872c2.593,15.019,5.185,30.038,7.774,45.058c-0.003,0,0.312,0.194,0.312,0.194
		C93.087,60.267,92.609,59.955,92.223,59.35z"/>
	<path fill-rule="evenodd" clip-rule="evenodd" fill="#6DBA46" d="M92.302,59.511c8.653-3.334,17.705-5.354,26.688-7.409
		c5.538-1.266,8.154-3.699,9.245-9.298c1.575-8.068,4.034-15.973,6.302-23.894c0.879-3.072,0.641-4.055-2.896-3.042
		c-10.299,2.954-20.678,5.637-31.027,8.426c-3.111,11.789-6.225,23.578-9.336,35.367c0.002,0.001-0.262,0.133-0.262,0.133
		C91.55,60.182,91.952,59.966,92.302,59.511z"/>
</g>
<g id="DigitalApple">
	<path fill-rule="evenodd" clip-rule="evenodd" fill="#CC2629" d="M-0.831,210.218c0-20.667,0.134-39.784,0.134-60.451
		c1.477-1.325,3.305-1.496,5.153-1.504c5.831-0.022,11.664-0.192,17.491,0.123c6.229,0.338,6.778-0.115,6.798-6.569
		c0.047-14.995,0-29.991,0.029-44.986c0.005-2.486-0.234-5.011,0.713-7.418c0.291-0.598,0.729-1.051,1.306-1.375
		c1.547-0.742,3.216-0.806,4.879-0.811c17.127-0.051,34.254-0.055,51.381,0.001c1.498,0.005,2.996,0.078,4.418,0.643
		c0.614,0.271,1.101,0.692,1.466,1.253c1.311,9.854,1.873,19.706-0.297,29.528c-1.876,1.803-4.28,1.574-6.577,1.609
		c-5.976,0.092-11.954,0.068-17.93,0.029c-3.788-0.024-5.392,1.632-5.326,5.412c0.099,5.643,0.161,11.294-0.024,16.933
		c-0.132,4.005,1.374,5.76,5.487,5.646c5.64-0.157,11.29-0.094,16.934-0.003c2.126,0.034,4.37-0.198,6.083,1.557
		c0.275,0.681,0.092,1.196-0.544,1.558c-4.948,1.76-10.071,0.729-15.112,0.886c-4.747,0.147-9.506,0.165-14.255-0.045
		c-7.969,0.198-15.945,0.158-23.915,0.034c-3.961-0.062-5.814,1.226-5.652,5.422c0.211,5.474,0.121,10.963,0.031,16.442
		c-0.059,3.576,1.462,5.116,5.047,5.09c5.979-0.044,11.961-0.122,17.939,0.043c6.416,0.177,7.856,1.64,7.995,8.088
		c0.121,5.646-0.022,11.296,0.051,16.943c0.071,5.443,0.479,5.828,6.069,5.908c6.477,0.093,12.957-0.109,19.433,0.114
		c1.336,0.047,2.646,0.283,3.782,1.08c2.97,5.139,1.384,10.641,1.284,16.023c-3.378,6.208-8.979,10.363-14.036,15.011
		c-0.984,0.904-2.443,0.895-3.792,0.817c-15.124-0.174-30.243,0.36-45.355-0.276c-1.657-1.754-1.457-3.986-1.488-6.117
		c-0.08-5.478,0.007-10.956-0.035-16.434c-0.066-8.655-0.323-8.599-7.008-8.635c-5.478-0.03-10.956,0.026-16.434-0.026
		C-0.831,211.761-0.831,212.468-0.831,210.218z"/>
	<path fill-rule="evenodd" clip-rule="evenodd" fill="#EC3E28" d="M-0.696,88.767c10.33-0.013,20.659-0.024,30.988-0.037
		c0.004,18.82-0.095,37.642,0.096,56.46c0.041,4.008-1.663,5.812-5.191,5.255c-8.627-1.36-17.272-0.213-25.893-0.678
		C-0.696,129.434-0.696,109.1-0.696,88.767z"/>
	<path fill-rule="evenodd" clip-rule="evenodd" fill="#F69E7F" d="M185.304,211.767c-0.365-0.039-0.731-0.079-1.097-0.118
		c-1.246-1.306-1.411-2.971-1.407-4.628c0.047-18.354-0.391-36.71,0.209-55.063c0.121-0.626,0.354-1.211,0.684-1.756
		c0.414-0.593,0.953-0.737,1.611-0.435C185.304,170.434,185.304,191.1,185.304,211.767z"/>
	<path fill-rule="evenodd" clip-rule="evenodd" fill="#E08E75" d="M185.304,149.767c-0.292,0.027-0.584,0.042-0.878,0.043
		c-1.853-1.64-1.685-3.892-1.694-6.015c-0.07-16.428-0.067-32.856-0.004-49.284c0.007-1.98-0.021-4.02,1.488-5.626
		c0.362-0.039,0.725-0.079,1.088-0.118C185.304,109.1,185.304,129.434,185.304,149.767z"/>
	<path fill-rule="evenodd" clip-rule="evenodd" fill="#CC2729" d="M184.216,88.885c0.069,20.309,0.14,40.616,0.21,60.925
		l-0.306-0.066c-1.541,1.582-3.568,1.553-5.525,1.556c-7.063,0.011-14.127,0.202-21.188-0.09c-4.184-0.39-5.494-3.123-5.586-6.857
		c-0.14-5.632-0.004-11.265-0.077-16.897c-0.074-5.745-0.411-6.072-6.306-6.129c-5.301-0.052-10.604,0.059-15.904-0.053
		c-2.48-0.052-5.035-0.048-6.766-2.343c-2.05-6.471-0.797-13.122-0.967-19.687c-0.23-8.908-0.062-8.911-9.02-8.919
		c-4.795-0.004-9.59,0.031-14.385-0.02c-2.148-0.023-4.334,0.023-6.1-1.544l0.008,0.008c-1.055-1.182-1.446-2.62-1.445-4.146
		c0.005-8.471-0.453-16.946,0.257-25.413c0.16-0.622,0.449-1.178,0.856-1.672c18.998,0.015,37.998,0.149,56.993-0.055
		c3.825-0.041,4.76,1.032,4.61,4.711c-0.299,7.32,0.139,14.671-0.18,21.99c-0.168,3.897,1.189,4.734,4.831,4.641
		C166.885,88.604,175.552,88.836,184.216,88.885z"/>
	<path fill-rule="evenodd" clip-rule="evenodd" fill="#BF2229" d="M91.322,150.703c-5.645-2.026-11.48-0.764-17.214-0.865
		c-12.804-0.226-12.807-0.07-12.806-12.713c0-4.664,0.099-9.33-0.03-13.99c-0.089-3.243,1.319-4.438,4.489-4.398
		c8.827,0.109,17.655,0.045,26.483,0.05c0.216,0.218,0.431,0.437,0.651,0.652c1.763,4.653,0.849,9.5,0.892,14.252
		c0.131,14.546,0.049,14.453,14.806,14.6c4.901,0.049,9.933-1.004,14.705,1.097c0.478,0.457,0.821,0.997,1.046,1.618
		c1.117,8.794,0.492,17.616,0.373,26.426c-0.036,2.708-1.244,5.269-4.16,5.432c-9.418,0.526-18.879,1.59-28.242-0.672
		c-0.888-0.858-1.271-1.963-1.276-3.146C90.993,169.596,90.468,160.142,91.322,150.703z"/>
	<path fill-rule="evenodd" clip-rule="evenodd" fill="#EC3E28" d="M91.974,57.539c0.488,0.253-0.211-0.008,0.277,0.245
		c0.018,10.328,0.037,20.657,0.055,30.985c-20.681-0.006-41.363-0.012-62.045-0.018c0.062-8.657,0.355-17.321,0.083-25.968
		c-0.128-4.059,0.82-5.354,5.11-5.285c16.652,0.271,33.312,0.128,49.968,0.086C87.211,57.581,87.211,57.581,91.974,57.539z"/>
	<path fill-rule="evenodd" clip-rule="evenodd" fill="#E43629" d="M91.322,150.703c1.878,2.361,0.863,5.117,0.916,7.674
		c0.158,7.789,0.079,15.584,0.093,23.376c0.517,0.653,1.091,1.341,1.126,2.173c0.377,9.05,1.226,18.111-0.484,27.126
		c-0.216,0.239-0.436,0.476-0.654,0.713c-8.823,0.001-17.648-0.123-26.466,0.067c-3.394,0.073-4.739-0.87-4.621-4.469
		c0.24-7.316-0.037-14.648,0.116-21.97c0.073-3.484-1.337-4.729-4.741-4.661c-7.321,0.144-14.651-0.076-21.971,0.098
		c-3.15,0.075-4.49-0.787-4.393-4.184c0.209-7.318,0.184-14.649,0.008-21.97c-0.075-3.126,1.133-4.008,4.096-3.96
		c8.987,0.145,17.977,0.065,26.966,0.073c1.703,1.94,1.494,4.333,1.519,6.646c0.061,5.659,0.063,11.319,0.011,16.979
		c-0.031,3.313,1.266,4.879,4.715,4.823c5.824-0.095,11.653-0.095,17.477,0c3.434,0.056,4.765-1.474,4.733-4.805
		c-0.054-5.658-0.052-11.319,0.012-16.979c0.026-2.312-0.195-4.707,1.53-6.639L91.322,150.703z"/>
	<path fill-rule="evenodd" clip-rule="evenodd" fill="#EC3E28" d="M153.528,212.048c-0.021,8.995-0.193,17.994,0.014,26.983
		c0.073,3.166-0.912,3.871-3.928,3.834c-13.158-0.163-26.32-0.133-39.479-0.015c-2.567,0.022-4.361-0.806-6.104-2.614
		c-3.811-3.954-7.815-7.722-11.741-11.565c0.009-5.636,0.019-11.271,0.028-16.907l-0.017,0.017c1.458-1.326,3.269-1.54,5.112-1.548
		c17.075-0.071,34.15-0.091,51.226,0.01c1.163,0.007,2.317,0.136,3.423,0.545C152.688,211.048,153.175,211.471,153.528,212.048z"/>
	<path fill-rule="evenodd" clip-rule="evenodd" fill="#E43629" d="M92.298,88.761c8.932,0.002,17.865,0.118,26.793-0.054
		c3.239-0.062,4.338,1.001,4.271,4.257c-0.178,8.597-0.058,17.2-0.056,25.801c0.308,0.702,0.096,1.165-0.635,1.396
		c-8.57,0.323-17.145,0.074-25.718,0.07c-1.669,0-3.3-0.251-4.605-1.459c0,0-0.103,0.014-0.103,0.014
		C92.262,108.778,92.28,98.769,92.298,88.761z"/>
	<path fill-rule="evenodd" clip-rule="evenodd" fill="#F15738" d="M91.309,150.816c0.002,8.456-0.112,16.915,0.065,25.368
		c0.069,3.3-0.728,4.796-4.389,4.667c-7.121-0.25-14.264-0.254-21.385,0.001c-3.7,0.133-4.42-1.434-4.354-4.694
		c0.171-8.453,0.062-16.912,0.066-25.368C71.31,150.798,81.309,150.807,91.309,150.816z"/>
	<path fill-rule="evenodd" clip-rule="evenodd" fill="#EC3E28" d="M157.29,149.813c8.943-0.023,17.888-0.047,26.83-0.07
		c0.029,20.636,0.059,41.271,0.087,61.906c-9.968,0.015-19.935,0.029-29.901,0.044c-1.539-1.617-1.388-3.668-1.391-5.65
		c-0.029-16.625-0.011-33.251-0.021-49.876C152.892,152.966,153.168,150.095,157.29,149.813z"/>
	<path fill-rule="evenodd" clip-rule="evenodd" fill="#E43629" d="M157.29,149.813c-2.821,1.072-3.041,3.302-3.029,5.961
		c0.086,18.64,0.045,37.279,0.045,55.919c-0.195,0.26-0.453,0.378-0.777,0.355c-0.095-0.138-0.198-0.268-0.311-0.392
		c-1.832-2.104-1.461-4.691-1.469-7.146c-0.051-15.139,0.005-30.277-0.038-45.415c-0.019-6.421-0.331-6.694-6.792-6.742
		c-5.157-0.038-10.314,0.028-15.471-0.029c-2.16-0.024-4.361,0.024-6.126-1.576c-0.013-0.329-0.022-0.658-0.03-0.986
		c-0.787-0.896-1.307-1.938-1.362-3.123c-0.37-7.92-0.353-15.842-0.007-23.761c0.051-1.167,0.423-2.275,1.369-3.087
		c0.004-0.342,0.01-0.684,0.014-1.025c6.678,2.095,13.531,0.754,20.296,0.93c9.704,0.253,9.71,0.064,9.71,9.804
		c0,5.328,0.078,10.657-0.029,15.983C153.224,148.361,154.246,149.948,157.29,149.813z"/>
	<path fill-rule="evenodd" clip-rule="evenodd" fill="#CC2729" d="M123.322,150.748c8.492,0.006,16.987,0.149,25.476-0.05
		c3.453-0.08,4.613,0.98,4.58,4.514c-0.177,18.814-0.129,37.631-0.16,56.446c-20.306,0.04-40.611,0.082-60.917,0.123
		c0.01-10.009,0.019-20.019,0.028-30.027c8.62,0.003,17.242-0.135,25.857,0.074c3.922,0.096,5.266-1.353,5.18-5.224
		C123.172,167.989,123.315,159.367,123.322,150.748z"/>
	<path fill-rule="evenodd" clip-rule="evenodd" fill="#F15638" d="M123.292,119.791c0,9.99,0,19.98,0.001,29.971
		c-8.938,0.005-17.88-0.109-26.813,0.08c-3.267,0.068-4.307-1.013-4.236-4.257c0.193-8.935,0.09-17.875,0.104-26.812
		c8.404,0,16.807,0.007,25.21-0.005C119.536,118.764,121.525,118.634,123.292,119.791z"/>
</g>
</svg>
