<?xml version="1.0" encoding="UTF-8" standalone="no"?>
<!-- Generator: Adobe Illustrator 16.0.0, SVG Export Plug-In . SVG Version: 6.00 Build 0)  -->

<svg
   xmlns:dc="http://purl.org/dc/elements/1.1/"
   xmlns:cc="http://creativecommons.org/ns#"
   xmlns:rdf="http://www.w3.org/1999/02/22-rdf-syntax-ns#"
   xmlns:svg="http://www.w3.org/2000/svg"
   xmlns="http://www.w3.org/2000/svg"
   xmlns:xlink="http://www.w3.org/1999/xlink"
   xmlns:sodipodi="http://sodipodi.sourceforge.net/DTD/sodipodi-0.dtd"
   xmlns:inkscape="http://www.inkscape.org/namespaces/inkscape"
   version="1.1"
   x="0px"
   y="0px"
   width="576px"
   height="200.16px"
   viewBox="0 0 576 200.16"
   enable-background="new 0 0 576 200.16"
   xml:space="preserve"
   id="svg2"
   inkscape:version="0.48.2 r9819"
   sodipodi:docname="made_in_NYC_logo-nofont.svg"><metadata
   id="metadata93"><rdf:RDF><cc:Work
       rdf:about=""><dc:format>image/svg+xml</dc:format><dc:type
         rdf:resource="http://purl.org/dc/dcmitype/StillImage" /><dc:title></dc:title></cc:Work></rdf:RDF></metadata><defs
   id="defs91" /><sodipodi:namedview
   pagecolor="#ffffff"
   bordercolor="#666666"
   borderopacity="1"
   objecttolerance="10"
   gridtolerance="10"
   guidetolerance="10"
   inkscape:pageopacity="0"
   inkscape:pageshadow="2"
   inkscape:window-width="640"
   inkscape:window-height="480"
   id="namedview89"
   showgrid="false"
   inkscape:zoom="0.61111111"
   inkscape:cx="288"
   inkscape:cy="100.08"
   inkscape:window-x="0"
   inkscape:window-y="0"
   inkscape:window-maximized="0"
   inkscape:current-layer="svg2" />
<g
   id="MADE_IN">
	
		<polygon
   id="BORDER"
   export-ydpi="90.000000"
   export-filename="/Users/rgrp/svnroot/okfn/trunk/gfx/ok_buttons/od_button_blue.png"
   export-xdpi="90.000000"
   fill="#FFFFFF"
   stroke="#676767"
   stroke-width="8.8223"
   points="   7.475,65.632 568.427,65.736 568.427,188.155 7.475,188.05  ">
	</polygon>
	
		<polygon
   id="BLUE_RECT"
   export-ydpi="90.000000"
   export-filename="/Users/rgrp/svnroot/okfn/trunk/gfx/ok_buttons/od_button_blue.png"
   export-xdpi="90.000000"
   fill="#647BBC"
   points="   278.846,78.736 555.08,78.84 555.08,175.06 278.846,174.956  ">
	</polygon>
	<g
   id="MADE"
   enable-background="new    ">
		<path
   fill="#647BBC"
   d="M38.604,147.668v-43.736h8.898v43.736H38.604z M47.502,112.679H56.4v8.748h-8.898V112.679z M56.4,121.427    h8.898v8.748H56.4V121.427z M65.298,112.679h8.898v8.748h-8.898V112.679z M74.197,147.668v-43.736h8.898v43.736H74.197z"
   id="path8" />
		<path
   fill="#647BBC"
   d="M101.104,147.668v-34.989h8.898v8.748h17.796v-8.748h8.898v34.989h-8.898v-17.494h-17.796v17.494H101.104z     M110.002,103.932v8.747h17.796v-8.747H110.002z"
   id="path10" />
		<path
   fill="#647BBC"
   d="M154.278,147.668v-43.736h26.694v8.747h-17.796v26.242h17.796v8.747H154.278z M189.87,112.679v26.242    h-8.898v-26.242H189.87z"
   id="path12" />
		<path
   fill="#647BBC"
   d="M234.359,112.679h-17.796v8.748h17.796v8.748h-17.796v8.747h17.796v8.747h-26.694v-43.736h26.694V112.679z    "
   id="path14" />
	</g>
	<g
   id="IN"
   enable-background="new    ">
		<path
   fill="#FFFFFF"
   d="M305.544,147.668v-43.736h8.898v43.736H305.544z"
   id="path17" />
		<path
   fill="#FFFFFF"
   d="M332.237,147.668v-43.736h8.898v43.736H332.237z M341.135,112.679h8.898v8.748h-8.898V112.679z     M350.033,121.427h8.898v8.748h-8.898V121.427z M358.931,130.174h8.899v8.747h-8.899V130.174z M367.83,147.668v-43.736h8.896    v43.736H367.83z"
   id="path19" />
	</g>
</g>
<g
   id="NYC_Apple">
	<g
   id="g22">
		<g
   id="g24">
			<defs
   id="defs26">
				<rect
   id="SVGID_1_"
   x="411.857"
   y="9.311"
   width="144.31"
   height="190.14" />
			</defs>
			<clipPath
   id="SVGID_2_">
				<use
   xlink:href="#SVGID_1_"
   overflow="visible"
   id="use30" />
			</clipPath>
			<g
   clip-path="url(#SVGID_2_)"
   id="g32">
				<defs
   id="defs34">
					<rect
   id="SVGID_3_"
   x="411.857"
   y="9.311"
   width="144.31"
   height="190.14" />
				</defs>
				<clipPath
   id="SVGID_4_">
					<use
   xlink:href="#SVGID_3_"
   overflow="visible"
   id="use38" />
				</clipPath>
				<path
   clip-path="url(#SVGID_4_)"
   fill-rule="evenodd"
   clip-rule="evenodd"
   fill="#6DBA46"
   d="M484.059,55.776      c-8.152-3.989-16.805-6.731-25.387-9.499c-5.291-1.707-7.633-4.303-8.22-9.854c-0.848-8-2.569-15.916-4.104-23.832      c-0.596-3.07-0.278-4.007,3.082-2.718c9.789,3.757,19.678,7.259,29.528,10.86c2.03,11.758,4.06,23.516,6.088,35.275      c-0.003,0,0.244,0.152,0.244,0.152C484.734,56.494,484.361,56.25,484.059,55.776"
   id="path40" />
				<path
   clip-path="url(#SVGID_4_)"
   fill-rule="evenodd"
   clip-rule="evenodd"
   fill="#6DBA46"
   d="M484.12,55.902      c6.774-2.61,13.861-4.192,20.894-5.801c4.336-0.991,6.384-2.896,7.238-7.279c1.233-6.316,3.158-12.505,4.933-18.707      c0.688-2.405,0.502-3.174-2.267-2.381c-8.063,2.313-16.188,4.413-24.291,6.597c-2.437,9.229-4.874,18.459-7.31,27.688      c0.002,0.001-0.205,0.104-0.205,0.104C483.531,56.428,483.846,56.259,484.12,55.902"
   id="path42" />
			</g>
			<g
   clip-path="url(#SVGID_2_)"
   id="g44">
				<defs
   id="defs46">
					<rect
   id="SVGID_5_"
   x="411.857"
   y="9.311"
   width="144.31"
   height="190.14" />
				</defs>
				<clipPath
   id="SVGID_6_">
					<use
   xlink:href="#SVGID_5_"
   overflow="visible"
   id="use50" />
				</clipPath>
				<path
   clip-path="url(#SVGID_6_)"
   fill-rule="evenodd"
   clip-rule="evenodd"
   fill="#CC2729"
   d="M411.207,173.89      c0-16.18,0.104-31.146,0.104-47.327c1.157-1.037,2.588-1.171,4.035-1.178c4.564-0.018,9.132-0.15,13.693,0.097      c4.877,0.264,5.307-0.09,5.322-5.143c0.037-11.739,0-23.48,0.022-35.22c0.004-1.946-0.183-3.922,0.559-5.808      c0.228-0.467,0.57-0.822,1.022-1.077c1.212-0.581,2.519-0.63,3.82-0.634c13.408-0.04,26.817-0.043,40.226,0.001      c1.172,0.004,2.346,0.061,3.459,0.502c0.48,0.212,0.862,0.542,1.148,0.981c1.026,7.716,1.466,15.428-0.232,23.118      c-1.469,1.411-3.352,1.232-5.149,1.26c-4.679,0.072-9.359,0.053-14.038,0.023c-2.966-0.019-4.221,1.277-4.169,4.237      c0.077,4.418,0.126,8.842-0.02,13.257c-0.103,3.135,1.075,4.509,4.296,4.419c4.415-0.123,8.839-0.073,13.257-0.001      c1.665,0.026,3.421-0.156,4.763,1.218c0.215,0.533,0.072,0.936-0.426,1.219c-3.875,1.378-7.886,0.57-11.831,0.694      c-3.717,0.114-7.442,0.129-11.16-0.035c-6.239,0.154-12.483,0.123-18.724,0.026c-3.1-0.049-4.552,0.959-4.425,4.245      c0.166,4.284,0.095,8.582,0.024,12.872c-0.046,2.8,1.145,4.005,3.951,3.984c4.68-0.034,9.364-0.096,14.044,0.034      c5.023,0.139,6.151,1.284,6.259,6.332c0.095,4.42-0.017,8.844,0.04,13.265c0.056,4.262,0.376,4.562,4.752,4.625      c5.071,0.073,10.145-0.085,15.215,0.09c1.046,0.036,2.07,0.222,2.96,0.846c2.326,4.022,1.084,8.33,1.006,12.545      c-2.645,4.86-7.029,8.112-10.989,11.752c-0.77,0.708-1.912,0.699-2.968,0.64c-11.841-0.137-23.677,0.282-35.509-0.217      c-1.297-1.373-1.14-3.12-1.164-4.788c-0.062-4.289,0.005-8.578-0.027-12.866c-0.052-6.776-0.253-6.732-5.486-6.761      c-4.288-0.023-8.578,0.021-12.866-0.021C411.207,175.098,411.207,175.652,411.207,173.89"
   id="path52" />
				<path
   clip-path="url(#SVGID_6_)"
   fill-rule="evenodd"
   clip-rule="evenodd"
   fill="#EC3E28"
   d="M411.312,78.807      c8.087-0.01,16.174-0.019,24.26-0.029c0.005,14.734-0.073,29.469,0.075,44.203c0.032,3.138-1.302,4.549-4.063,4.114      c-6.754-1.066-13.523-0.167-20.271-0.531V78.807z"
   id="path54" />
				<path
   clip-path="url(#SVGID_6_)"
   fill-rule="evenodd"
   clip-rule="evenodd"
   fill="#F69E7F"
   d="M556.931,175.103      c-0.285-0.03-0.572-0.062-0.858-0.093c-0.976-1.022-1.104-2.325-1.102-3.623c0.037-14.37-0.306-28.74,0.164-43.109      c0.095-0.49,0.277-0.948,0.535-1.374c0.324-0.464,0.746-0.578,1.261-0.34V175.103z"
   id="path56" />
				<path
   clip-path="url(#SVGID_6_)"
   fill-rule="evenodd"
   clip-rule="evenodd"
   fill="#E08E75"
   d="M556.931,126.563      c-0.229,0.021-0.457,0.033-0.687,0.034c-1.45-1.284-1.319-3.047-1.327-4.709c-0.056-12.86-0.053-25.723-0.003-38.584      c0.006-1.55-0.017-3.146,1.165-4.405c0.283-0.03,0.568-0.062,0.852-0.092V126.563z"
   id="path58" />
				<path
   clip-path="url(#SVGID_6_)"
   fill-rule="evenodd"
   clip-rule="evenodd"
   fill="#CD2629"
   d="M556.079,78.899      c0.054,15.9,0.11,31.798,0.165,47.698l-0.24-0.053c-1.206,1.238-2.793,1.216-4.325,1.219c-5.53,0.008-11.06,0.158-16.588-0.071      c-3.275-0.305-4.302-2.445-4.373-5.368c-0.109-4.41-0.003-8.819-0.061-13.229c-0.058-4.498-0.321-4.754-4.937-4.798      c-4.15-0.04-8.302,0.046-12.452-0.041c-1.941-0.041-3.941-0.038-5.296-1.834c-1.604-5.066-0.624-10.273-0.757-15.413      c-0.181-6.974-0.049-6.976-7.062-6.982c-3.754-0.002-7.508,0.025-11.262-0.015c-1.682-0.019-3.393,0.018-4.775-1.208      l0.006,0.006c-0.825-0.926-1.132-2.051-1.131-3.246c0.004-6.631-0.354-13.267,0.201-19.896c0.125-0.486,0.352-0.923,0.67-1.31      c14.873,0.012,29.748,0.117,44.62-0.042c2.994-0.032,3.726,0.808,3.608,3.688c-0.232,5.731,0.109,11.485-0.14,17.216      c-0.132,3.051,0.931,3.707,3.782,3.633C542.511,78.679,549.296,78.861,556.079,78.899"
   id="path60" />
				<path
   clip-path="url(#SVGID_6_)"
   fill-rule="evenodd"
   clip-rule="evenodd"
   fill="#BF2229"
   d="M483.353,127.296      c-4.419-1.586-8.987-0.599-13.477-0.678c-10.024-0.176-10.026-0.055-10.025-9.953c0-3.651,0.077-7.305-0.023-10.953      c-0.071-2.54,1.032-3.475,3.515-3.444c6.91,0.086,13.821,0.035,20.732,0.039c0.17,0.17,0.338,0.342,0.511,0.51      c1.379,3.644,0.663,7.438,0.697,11.158c0.103,11.388,0.038,11.315,11.592,11.431c3.837,0.038,7.776-0.786,11.512,0.859      c0.375,0.358,0.643,0.78,0.819,1.266c0.875,6.886,0.385,13.792,0.292,20.689c-0.028,2.12-0.974,4.124-3.257,4.252      c-7.373,0.412-14.78,1.244-22.11-0.526c-0.695-0.672-0.995-1.537-1-2.462C483.096,142.087,482.685,134.685,483.353,127.296"
   id="path62" />
				<path
   clip-path="url(#SVGID_6_)"
   fill-rule="evenodd"
   clip-rule="evenodd"
   fill="#EC3E28"
   d="M483.863,54.358      c0.382,0.198-0.165-0.006,0.217,0.192c0.015,8.086,0.028,16.172,0.044,24.258c-16.192-0.004-32.385-0.008-48.575-0.013      c0.048-6.777,0.278-13.561,0.065-20.33c-0.101-3.178,0.642-4.192,4-4.138c13.037,0.212,26.08,0.1,39.12,0.067      C480.135,54.391,480.135,54.391,483.863,54.358"
   id="path64" />
				<path
   clip-path="url(#SVGID_6_)"
   fill-rule="evenodd"
   clip-rule="evenodd"
   fill="#E43629"
   d="M483.353,127.296      c1.471,1.848,0.676,4.006,0.718,6.007c0.124,6.099,0.062,12.201,0.071,18.302c0.405,0.511,0.854,1.05,0.882,1.701      c0.296,7.084,0.96,14.179-0.379,21.236c-0.169,0.188-0.341,0.372-0.512,0.559c-6.908,0.001-13.816-0.098-20.721,0.053      c-2.657,0.057-3.711-0.682-3.618-3.499c0.188-5.728-0.028-11.468,0.091-17.2c0.058-2.728-1.047-3.702-3.712-3.649      c-5.732,0.112-11.47-0.06-17.201,0.077c-2.466,0.059-3.515-0.616-3.438-3.276c0.164-5.729,0.145-11.468,0.007-17.199      c-0.059-2.447,0.887-3.138,3.206-3.1c7.036,0.113,14.074,0.051,21.111,0.057c1.333,1.519,1.17,3.393,1.189,5.203      c0.048,4.432,0.049,8.862,0.009,13.293c-0.023,2.594,0.991,3.819,3.691,3.776c4.56-0.075,9.124-0.075,13.683,0      c2.688,0.043,3.73-1.153,3.706-3.763c-0.042-4.43-0.041-8.861,0.009-13.292c0.02-1.81-0.152-3.685,1.198-5.197L483.353,127.296z      "
   id="path66" />
				<path
   clip-path="url(#SVGID_6_)"
   fill-rule="evenodd"
   clip-rule="evenodd"
   fill="#EC3E28"
   d="M532.055,175.323      c-0.017,7.043-0.151,14.088,0.011,21.125c0.057,2.479-0.714,3.031-3.075,3.002c-10.302-0.128-20.606-0.104-30.909-0.012      c-2.01,0.018-3.414-0.63-4.778-2.047c-2.984-3.096-6.119-6.045-9.192-9.054c0.007-4.413,0.014-8.824,0.022-13.236l-0.014,0.012      c1.142-1.038,2.56-1.205,4.003-1.211c13.368-0.057,26.736-0.071,40.104,0.007c0.911,0.006,1.814,0.107,2.681,0.427      C531.396,174.541,531.777,174.872,532.055,175.323"
   id="path68" />
				<path
   clip-path="url(#SVGID_6_)"
   fill-rule="evenodd"
   clip-rule="evenodd"
   fill="#E43629"
   d="M484.117,78.802      c6.993,0.001,13.986,0.092,20.976-0.042c2.536-0.049,3.396,0.784,3.344,3.333c-0.139,6.73-0.045,13.465-0.044,20.199      c0.241,0.55,0.076,0.912-0.496,1.092c-6.71,0.254-13.423,0.059-20.135,0.055c-1.307,0-2.584-0.196-3.605-1.142l-0.08,0.01      C484.089,94.473,484.103,86.637,484.117,78.802"
   id="path70" />
				<path
   clip-path="url(#SVGID_6_)"
   fill-rule="evenodd"
   clip-rule="evenodd"
   fill="#F15638"
   d="M483.343,127.384      c0.001,6.62-0.088,13.243,0.051,19.86c0.054,2.584-0.57,3.755-3.437,3.654c-5.574-0.196-11.167-0.199-16.742,0.001      c-2.896,0.104-3.46-1.122-3.408-3.676c0.133-6.617,0.048-13.239,0.051-19.86C467.686,127.37,475.514,127.377,483.343,127.384"
   id="path72" />
				<path
   clip-path="url(#SVGID_6_)"
   fill-rule="evenodd"
   clip-rule="evenodd"
   fill="#EC3E28"
   d="M534.999,126.599      c7.002-0.018,14.005-0.037,21.006-0.055c0.022,16.155,0.046,32.312,0.067,48.466c-7.804,0.012-15.606,0.023-23.409,0.034      c-1.205-1.266-1.087-2.871-1.089-4.424c-0.023-13.016-0.009-26.031-0.017-39.047      C531.557,129.068,531.772,126.82,534.999,126.599"
   id="path74" />
				<path
   clip-path="url(#SVGID_6_)"
   fill-rule="evenodd"
   clip-rule="evenodd"
   fill="#E33629"
   d="M534.999,126.599      c-2.208,0.839-2.381,2.585-2.371,4.667c0.067,14.593,0.035,29.186,0.035,43.778c-0.153,0.204-0.355,0.296-0.609,0.278      c-0.073-0.107-0.154-0.209-0.242-0.306c-1.435-1.647-1.145-3.674-1.15-5.596c-0.04-11.852,0.004-23.704-0.029-35.555      c-0.016-5.027-0.26-5.241-5.317-5.279c-4.038-0.029-8.076,0.022-12.113-0.022c-1.69-0.02-3.414,0.02-4.796-1.234      c-0.009-0.258-0.017-0.516-0.022-0.772c-0.617-0.701-1.023-1.518-1.066-2.445c-0.29-6.201-0.276-12.403-0.006-18.603      c0.04-0.914,0.331-1.781,1.072-2.416c0.003-0.268,0.007-0.536,0.011-0.803c5.228,1.64,10.593,0.59,15.89,0.728      c7.597,0.198,7.601,0.05,7.601,7.675c0,4.171,0.062,8.343-0.022,12.513C531.816,125.462,532.616,126.705,534.999,126.599"
   id="path76" />
				<path
   clip-path="url(#SVGID_6_)"
   fill-rule="evenodd"
   clip-rule="evenodd"
   fill="#CD2629"
   d="M508.406,127.331      c6.648,0.004,13.299,0.116,19.945-0.039c2.703-0.063,3.611,0.768,3.585,3.534c-0.139,14.729-0.101,29.461-0.125,44.191      c-15.897,0.031-31.795,0.064-47.691,0.097c0.007-7.836,0.014-15.672,0.021-23.509c6.749,0.003,13.499-0.105,20.243,0.059      c3.071,0.075,4.123-1.059,4.056-4.09C508.289,140.829,508.4,134.079,508.406,127.331"
   id="path78" />
				<path
   clip-path="url(#SVGID_6_)"
   fill-rule="evenodd"
   clip-rule="evenodd"
   fill="#F15638"
   d="M508.383,103.095      c0,7.821,0,15.642,0,23.464c-6.998,0.004-13.998-0.086-20.991,0.062c-2.558,0.053-3.372-0.793-3.317-3.333      c0.152-6.995,0.07-13.994,0.081-20.992c6.58,0,13.157,0.005,19.737-0.003C505.441,102.292,506.999,102.189,508.383,103.095"
   id="path80" />
			</g>
		</g>
	</g>
	<g
   id="NYC">
		<path
   fill="#FFFFFF"
   d="M428.686,140.416v-29.762h6.055v29.762H428.686z M434.74,116.605h6.055v5.953h-6.055V116.605z     M440.795,122.558h6.055v5.952h-6.055V122.558z M446.85,128.51h6.055v5.952h-6.055V128.51z M452.904,140.416v-29.762h6.055v29.762    H452.904z"
   id="path83" />
		<path
   fill="#FFFFFF"
   d="M471.069,110.653h6.055v5.952h-6.055V110.653z M477.124,116.605h6.056v5.953h-6.056V116.605z     M483.18,140.416v-17.857h6.055v17.857H483.18z M489.234,116.605h6.055v5.953h-6.055V116.605z M495.289,110.653h6.055v5.952    h-6.055V110.653z"
   id="path85" />
		<path
   fill="#FFFFFF"
   d="M519.509,134.462h-6.056v-17.857h6.056V134.462z M531.618,116.605h-12.109v-5.952h12.109V116.605z     M531.618,140.416h-12.109v-5.953h12.109V140.416z M537.673,122.558h-6.055v-5.953h6.055V122.558z M537.673,134.462h-6.055v-5.952    h6.055V134.462z"
   id="path87" />
	</g>
</g>
</svg>