<svg xmlns="http://www.w3.org/2000/svg" xmlns:svg="http://www.w3.org/2000/svg" id="svg3004" width="720" height="250.2" version="1.1" xml:space="preserve"><metadata id="metadata3010"/><defs id="defs3008"><clipPath id="clipPath3022" clipPathUnits="userSpaceOnUse"><path id="path3024" d="m 0,200.16 576,0 L 576,0 0,0 0,200.16 z"/></clipPath><clipPath id="clipPath3038" clipPathUnits="userSpaceOnUse"><path id="path3040" d="m 0,200.16 576,0 L 576,0 0,0 0,200.16 z"/></clipPath><clipPath id="clipPath3046" clipPathUnits="userSpaceOnUse"><path id="path3048" d="m 29.7065,111.088 213.5505,0 0,-67.3439 -213.5505,0 0,67.3439 z"/></clipPath><clipPath id="clipPath3050" clipPathUnits="userSpaceOnUse"><path id="path3052" d="m 29.7065,111.088 213.5505,0 0,-67.3439 -213.5505,0 0,67.3439 z"/></clipPath><clipPath id="clipPath3074" clipPathUnits="userSpaceOnUse"><path id="path3076" d="m 296.646,111.088 124.571,0 0,-67.3439 -124.571,0 0,67.3439 z"/></clipPath><clipPath id="clipPath3078" clipPathUnits="userSpaceOnUse"><path id="path3080" d="m 296.646,111.088 124.571,0 0,-67.3439 -124.571,0 0,67.3439 z"/></clipPath><clipPath id="clipPath3102" clipPathUnits="userSpaceOnUse"><path id="path3104" d="m 411.857,0.709 144.31,0 0,190.139 -144.31,0 0,-190.139 z"/></clipPath></defs><g id="g3012" transform="matrix(1.25,0,0,-1.25,0,250.2)"><g id="g3014" transform="translate(7.4746,134.5278)"><path style="fill:#fff;fill-opacity:1;fill-rule:nonzero;stroke:none" id="path3016" d="m 0,0 560.952,-0.104 0,-122.419 L 0,-122.418 0,0 z"/></g><g id="g3018"><g id="g3020" clip-path="url(#clipPath3022)"><g id="g3026" transform="translate(7.4746,134.5278)"><path style="fill:none;stroke:#5f6062;stroke-opacity:1;stroke-width:8.822;stroke-linecap:butt;stroke-linejoin:miter;stroke-miterlimit:4;stroke-dasharray:none" id="path3028" d="m 0,0 560.952,-0.104 0,-122.419 L 0,-122.418 0,0 z"/></g></g></g><g id="g3030" transform="translate(278.8457,121.4238)"><path style="fill:#6473c1;fill-opacity:1;fill-rule:nonzero;stroke:none" id="path3032" d="m 0,0 276.234,-0.104 0,-96.22 L 0,-96.22 0,0 z"/></g><g id="g3034"><g id="g3036" clip-path="url(#clipPath3038)"><g id="g3042"><g id="g3054"><g id="g3056" clip-path="url(#clipPath3046)"><g id="g3058"><g id="g3062"><g id="g3064" clip-path="url(#clipPath3050)"><text id="text3066" transform="matrix(1,0,0,-0.98306203,29.7065,52.4912)"><tspan style="fill:#6473c1;fill-opacity:1;fill-rule:nonzero;stroke:none;font-family:Silkscreen;font-variant:normal;font-weight:400;font-stretch:normal;font-size:74.7433;writing-mode:lr;-inkscape-font-specification:Silkscreen" id="tspan3068" x="0 62.261 115.628 168.995" y="0">MADE</tspan></text></g></g></g></g></g></g><g id="g3070"><g id="g3082"><g id="g3084" clip-path="url(#clipPath3074)"><g id="g3086"><g id="g3090"><g id="g3092" clip-path="url(#clipPath3078)"><text id="text3094" transform="matrix(1,0,0,-0.98306203,296.646,52.4912)"><tspan style="fill:#fff;fill-opacity:1;fill-rule:nonzero;stroke:none;font-family:Silkscreen;font-variant:normal;font-weight:400;font-stretch:normal;font-size:74.7433;writing-mode:lr;-inkscape-font-specification:Silkscreen" id="tspan3096" x="0 26.683 88.945" y="0">IN</tspan></text></g></g></g></g></g></g></g></g><g id="g3098"><g id="g3100" clip-path="url(#clipPath3102)"><g id="g3106" transform="translate(484.0582,144.3838)"><path style="fill:#61c033;fill-opacity:1;fill-rule:evenodd;stroke:none" id="path3108" d="m 0,0 c -8.152,3.989 -16.805,6.731 -25.387,9.499 -5.29,1.707 -7.632,4.303 -8.22,9.853 -0.847,8.001 -2.568,15.916 -4.104,23.832 -0.595,3.07 -0.278,4.007 3.082,2.718 9.789,-3.758 19.679,-7.259 29.529,-10.86 2.03,-11.759 4.06,-23.517 6.087,-35.276 -0.002,0 0.245,-0.152 0.245,-0.152 C 0.676,-0.718 0.303,-0.474 0,0"/></g><g id="g3110" transform="translate(484.1201,144.2573)"><path style="fill:#61c033;fill-opacity:1;fill-rule:evenodd;stroke:none" id="path3112" d="m 0,0 c 6.774,2.61 13.861,4.192 20.893,5.8 4.337,0.992 6.385,2.896 7.239,7.28 1.233,6.316 3.158,12.505 4.933,18.706 0.688,2.405 0.502,3.174 -2.267,2.382 C 22.735,31.854 14.609,29.755 6.507,27.571 4.07,18.342 1.633,9.112 -0.802,-0.117 -0.801,-0.118 -1.008,-0.222 -1.008,-0.222 -0.589,-0.525 -0.274,-0.356 0,0"/></g><g id="g3114" transform="translate(411.2072,26.2693)"><path style="fill:#ce2128;fill-opacity:1;fill-rule:evenodd;stroke:none" id="path3116" d="m 0,0 c 0,16.18 0.105,31.147 0.105,47.327 1.156,1.037 2.587,1.171 4.034,1.177 4.565,0.018 9.132,0.151 13.694,-0.096 4.876,-0.265 5.306,0.09 5.322,5.143 0.038,11.739 0,23.481 0.023,35.22 0.004,1.946 -0.184,3.922 0.558,5.808 0.228,0.467 0.571,0.822 1.023,1.076 1.211,0.581 2.518,0.63 3.82,0.634 13.408,0.04 26.817,0.043 40.226,-0.001 1.172,-0.003 2.345,-0.061 3.459,-0.502 0.48,-0.212 0.862,-0.543 1.147,-0.981 1.027,-7.716 1.467,-15.428 -0.232,-23.118 -1.469,-1.411 -3.351,-1.233 -5.149,-1.26 -4.679,-0.072 -9.359,-0.053 -14.038,-0.023 -2.965,0.019 -4.221,-1.277 -4.169,-4.237 0.077,-4.418 0.126,-8.842 -0.019,-13.257 -0.103,-3.135 1.075,-4.509 4.296,-4.419 4.414,0.123 8.838,0.073 13.256,0.002 1.665,-0.027 3.422,0.155 4.763,-1.219 0.215,-0.533 0.072,-0.936 -0.426,-1.219 -3.875,-1.378 -7.885,-0.571 -11.831,-0.694 -3.717,-0.115 -7.442,-0.129 -11.16,0.035 -6.239,-0.155 -12.484,-0.123 -18.723,-0.026 -3.101,0.048 -4.552,-0.959 -4.425,-4.245 0.166,-4.285 0.094,-8.583 0.024,-12.873 -0.046,-2.799 1.145,-4.005 3.951,-3.985 4.68,0.035 9.364,0.096 14.045,-0.033 5.023,-0.139 6.15,-1.284 6.258,-6.332 0.095,-4.421 -0.017,-8.844 0.04,-13.265 0.056,-4.262 0.376,-4.563 4.751,-4.625 5.072,-0.073 10.145,0.085 15.215,-0.09 1.046,-0.036 2.071,-0.222 2.961,-0.846 2.325,-4.022 1.084,-8.33 1.005,-12.544 -2.644,-4.86 -7.029,-8.113 -10.988,-11.752 -0.771,-0.708 -1.913,-0.7 -2.968,-0.64 -11.841,0.136 -23.677,-0.282 -35.509,0.216 -1.297,1.373 -1.14,3.121 -1.165,4.789 -0.062,4.289 0.006,8.578 -0.027,12.866 -0.052,6.776 -0.253,6.732 -5.486,6.761 C 13.373,-1.205 9.083,-1.249 4.795,-1.208 0,-1.208 0,-1.762 0,0"/></g><g id="g3118" transform="translate(411.3123,121.353)"><path style="fill:#ed2f25;fill-opacity:1;fill-rule:evenodd;stroke:none" id="path3120" d="m 0,0 c 8.087,0.01 16.174,0.019 24.26,0.029 0.004,-14.734 -0.073,-29.469 0.076,-44.202 0.032,-3.138 -1.302,-4.55 -4.064,-4.114 -6.755,1.065 -13.523,0.166 -20.272,0.53 L 0,0 z"/></g><g id="g3122" transform="translate(556.931,25.0567)"><path style="fill:#f68d71;fill-opacity:1;fill-rule:evenodd;stroke:none" id="path3124" d="m 0,0 c -0.286,0.031 -0.572,0.062 -0.859,0.092 -0.975,1.023 -1.105,2.326 -1.101,3.624 0.036,14.37 -0.306,28.74 0.163,43.109 0.095,0.49 0.278,0.948 0.536,1.374 0.324,0.464 0.746,0.578 1.261,0.341 L 0,0 z"/></g><g id="g3126" transform="translate(556.931,73.5963)"><path style="fill:#e27e69;fill-opacity:1;fill-rule:evenodd;stroke:none" id="path3128" d="m 0,0 c -0.229,-0.021 -0.457,-0.033 -0.687,-0.034 -1.45,1.284 -1.32,3.047 -1.327,4.709 -0.055,12.861 -0.053,25.723 -0.003,38.585 0.006,1.55 -0.017,3.146 1.165,4.404 0.284,0.031 0.568,0.062 0.852,0.093 L 0,0 z"/></g><g id="g3130" transform="translate(556.0793,121.2604)"><path style="fill:#cf2128;fill-opacity:1;fill-rule:evenodd;stroke:none" id="path3132" d="m 0,0 c 0.054,-15.9 0.11,-31.798 0.164,-47.698 l -0.239,0.053 c -1.207,-1.239 -2.794,-1.216 -4.326,-1.219 -5.53,-0.008 -11.06,-0.158 -16.588,0.071 -3.275,0.304 -4.301,2.445 -4.373,5.368 -0.109,4.409 -0.002,8.819 -0.06,13.229 -0.058,4.498 -0.322,4.754 -4.936,4.799 -4.15,0.04 -8.302,-0.046 -12.452,0.041 -1.942,0.04 -3.942,0.037 -5.297,1.834 -1.605,5.066 -0.624,10.273 -0.757,15.413 -0.181,6.974 -0.048,6.976 -7.061,6.982 -3.754,0.003 -7.508,-0.025 -11.262,0.015 -1.682,0.019 -3.393,-0.018 -4.775,1.209 l 0.006,-0.006 c -0.826,0.925 -1.132,2.051 -1.131,3.246 0.004,6.631 -0.355,13.267 0.201,19.895 0.125,0.487 0.351,0.923 0.67,1.309 14.874,-0.011 29.749,-0.116 44.62,0.043 2.994,0.032 3.726,-0.808 3.609,-3.689 -0.233,-5.73 0.109,-11.485 -0.14,-17.215 -0.132,-3.051 0.931,-3.707 3.782,-3.633 C -13.568,0.22 -6.783,0.038 0,0"/></g><g id="g3134" transform="translate(483.3529,72.8639)"><path style="fill:#bf1e28;fill-opacity:1;fill-rule:evenodd;stroke:none" id="path3136" d="m 0,0 c -4.419,1.586 -8.988,0.598 -13.477,0.677 -10.024,0.177 -10.026,0.056 -10.026,9.953 0,3.652 0.078,7.305 -0.023,10.953 -0.07,2.54 1.033,3.474 3.514,3.444 6.911,-0.086 13.822,-0.035 20.734,-0.039 0.169,-0.171 0.337,-0.342 0.51,-0.511 C 2.611,20.834 1.895,17.04 1.929,13.319 2.032,1.931 1.967,2.004 13.521,1.889 17.358,1.851 21.297,2.675 25.033,1.03 c 0.374,-0.357 0.643,-0.78 0.819,-1.266 0.875,-6.885 0.385,-13.792 0.292,-20.689 -0.028,-2.12 -0.974,-4.125 -3.257,-4.252 -7.373,-0.413 -14.78,-1.245 -22.11,0.526 -0.696,0.672 -0.995,1.537 -1,2.462 C -0.258,-14.792 -0.669,-7.39 0,0"/></g><g id="g3138" transform="translate(483.8636,145.8017)"><path style="fill:#ed2f25;fill-opacity:1;fill-rule:evenodd;stroke:none" id="path3140" d="m 0,0 c 0.382,-0.198 -0.165,0.006 0.217,-0.192 0.014,-8.086 0.028,-16.172 0.043,-24.258 -16.192,0.004 -32.384,0.009 -48.575,0.013 0.048,6.778 0.278,13.561 0.065,20.331 -0.1,3.177 0.642,4.191 4.001,4.137 13.037,-0.212 26.08,-0.1 39.119,-0.067 C -3.729,-0.033 -3.729,-0.033 0,0"/></g><g id="g3142" transform="translate(483.3529,72.8639)"><path style="fill:#e52a27;fill-opacity:1;fill-rule:evenodd;stroke:none" id="path3144" d="m 0,0 c 1.47,-1.848 0.676,-4.006 0.717,-6.008 0.124,-6.098 0.062,-12.201 0.072,-18.301 0.405,-0.511 0.854,-1.05 0.882,-1.701 0.295,-7.085 0.96,-14.179 -0.379,-21.237 -0.169,-0.187 -0.342,-0.372 -0.512,-0.558 -6.908,-10e-4 -13.817,0.097 -20.721,-0.053 -2.657,-0.057 -3.71,0.681 -3.618,3.499 0.188,5.728 -0.028,11.468 0.091,17.2 0.057,2.728 -1.047,3.702 -3.712,3.649 -5.732,-0.112 -11.47,0.06 -17.201,-0.076 -2.466,-0.059 -3.515,0.616 -3.439,3.275 0.164,5.73 0.145,11.469 0.007,17.2 -0.059,2.447 0.887,3.138 3.206,3.1 7.036,-0.113 14.074,-0.051 21.112,-0.057 1.333,-1.519 1.169,-3.392 1.189,-5.203 0.047,-4.431 0.049,-8.863 0.009,-13.293 -0.024,-2.594 0.991,-3.82 3.691,-3.776 4.56,0.074 9.124,0.074 13.682,0 2.689,-0.044 3.732,1.153 3.707,3.762 -0.043,4.43 -0.041,8.861 0.009,13.292 0.02,1.81 -0.153,3.685 1.198,5.198 L 0,0 z"/></g><g id="g3146" transform="translate(532.0541,24.8366)"><path style="fill:#ed2f25;fill-opacity:1;fill-rule:evenodd;stroke:none" id="path3148" d="m 0,0 c -0.016,-7.042 -0.151,-14.087 0.011,-21.125 0.057,-2.479 -0.714,-3.03 -3.075,-3.002 -10.302,0.128 -20.606,0.104 -30.909,0.011 -2.01,-0.017 -3.414,0.631 -4.779,2.048 -2.983,3.095 -6.118,6.044 -9.192,9.054 0.007,4.412 0.014,8.824 0.022,13.236 L -47.935,0.21 c 1.141,1.038 2.559,1.205 4.003,1.211 13.368,0.056 26.736,0.071 40.104,-0.007 0.91,-0.006 1.814,-0.107 2.68,-0.427 C -0.658,0.783 -0.277,0.452 0,0"/></g><g id="g3150" transform="translate(484.1171,121.3576)"><path style="fill:#e52926;fill-opacity:1;fill-rule:evenodd;stroke:none" id="path3152" d="m 0,0 c 6.993,-0.002 13.986,-0.092 20.976,0.042 2.536,0.049 3.396,-0.783 3.343,-3.333 -0.138,-6.73 -0.045,-13.465 -0.043,-20.199 0.24,-0.55 0.075,-0.912 -0.497,-1.092 -6.71,-0.254 -13.422,-0.059 -20.135,-0.056 -1.306,0 -2.583,0.197 -3.605,1.143 l -0.081,-0.011 C -0.028,-15.671 -0.014,-7.835 0,0"/></g><g id="g3154" transform="translate(483.3426,72.7752)"><path style="fill:#f04031;fill-opacity:1;fill-rule:evenodd;stroke:none" id="path3156" d="m 0,0 c 0.002,-6.62 -0.088,-13.243 0.051,-19.861 0.054,-2.583 -0.57,-3.754 -3.436,-3.653 -5.575,0.195 -11.167,0.199 -16.743,-0.001 -2.896,-0.104 -3.46,1.122 -3.408,3.675 0.133,6.618 0.048,13.24 0.051,19.86 C -15.657,0.014 -7.829,0.007 0,0"/></g><g id="g3158" transform="translate(534.9991,73.5604)"><path style="fill:#ed2f25;fill-opacity:1;fill-rule:evenodd;stroke:none" id="path3160" d="m 0,0 c 7.001,0.018 14.004,0.037 21.005,0.055 0.023,-16.155 0.046,-32.311 0.068,-48.466 -7.804,-0.012 -15.607,-0.023 -23.409,-0.035 -1.205,1.266 -1.087,2.872 -1.089,4.425 -0.023,13.015 -0.009,26.031 -0.017,39.046 C -3.443,-2.468 -3.227,-0.221 0,0"/></g><g id="g3162" transform="translate(534.9991,73.5604)"><path style="fill:#e52926;fill-opacity:1;fill-rule:evenodd;stroke:none" id="path3164" d="m 0,0 c -2.209,-0.839 -2.381,-2.585 -2.371,-4.667 0.067,-14.593 0.035,-29.185 0.035,-43.779 -0.154,-0.203 -0.356,-0.296 -0.609,-0.278 -0.074,0.108 -0.155,0.209 -0.243,0.307 -1.434,1.647 -1.144,3.673 -1.15,5.595 -0.04,11.851 0.004,23.704 -0.03,35.555 -0.015,5.027 -0.259,5.241 -5.317,5.278 -4.038,0.03 -8.076,-0.021 -12.112,0.023 -1.691,0.02 -3.415,-0.019 -4.796,1.234 -0.01,0.258 -0.018,0.516 -0.024,0.773 -0.616,0.7 -1.023,1.517 -1.066,2.445 -0.29,6.2 -0.277,12.402 -0.006,18.602 0.04,0.914 0.331,1.781 1.072,2.416 0.003,0.268 0.008,0.536 0.011,0.803 5.227,-1.64 10.593,-0.59 15.89,-0.728 7.597,-0.198 7.601,-0.05 7.601,-7.675 0,-4.172 0.062,-8.344 -0.023,-12.513 C -3.183,1.137 -2.383,-0.106 0,0"/></g><g id="g3166" transform="translate(508.406,72.8287)"><path style="fill:#cf2128;fill-opacity:1;fill-rule:evenodd;stroke:none" id="path3168" d="m 0,0 c 6.648,-0.005 13.299,-0.117 19.945,0.039 2.703,0.063 3.612,-0.768 3.586,-3.534 -0.139,-14.729 -0.101,-29.461 -0.126,-44.191 -15.897,-0.032 -31.795,-0.064 -47.691,-0.097 0.007,7.836 0.014,15.673 0.022,23.509 6.748,-0.003 13.498,0.105 20.243,-0.058 3.071,-0.076 4.123,1.058 4.055,4.089 C -0.117,-13.498 -0.005,-6.748 0,0"/></g><g id="g3170" transform="translate(508.3823,97.0649)"><path style="fill:#f04031;fill-opacity:1;fill-rule:evenodd;stroke:none" id="path3172" d="m 0,0 c 0,-7.821 0,-15.642 0.001,-23.464 -6.999,-0.004 -13.998,0.086 -20.992,-0.063 -2.558,-0.053 -3.372,0.793 -3.317,3.333 0.152,6.995 0.07,13.994 0.081,20.992 6.58,0 13.158,-0.006 19.737,0.003 C -2.941,0.803 -1.383,0.905 0,0"/></g></g></g><text id="text3174" transform="matrix(1,0,0,-0.98306184,422.6299,59.7446)"><tspan style="fill:#fff;fill-opacity:1;fill-rule:nonzero;stroke:none;font-family:Silkscreen;font-variant:normal;font-weight:400;font-stretch:normal;font-size:50.8615;writing-mode:lr;-inkscape-font-specification:Silkscreen" id="tspan3176" x="0 42.368 84.735" y="0">NYC</tspan></text></g></svg>