<?xml version="1.0" encoding="utf-8"?>
<!-- Generator: Adobe Illustrator 16.0.0, SVG Export Plug-In . SVG Version: 6.00 Build 0)  -->
<!DOCTYPE svg PUBLIC "-//W3C//DTD SVG 1.1//EN" "http://www.w3.org/Graphics/SVG/1.1/DTD/svg11.dtd">
<svg version="1.1" id="Layer_1" xmlns="http://www.w3.org/2000/svg" xmlns:xlink="http://www.w3.org/1999/xlink" x="0px" y="0px"
	 width="612px" height="792px" viewBox="0 0 612 792" enable-background="new 0 0 612 792" xml:space="preserve">
<g>
	<g>
		<defs>
			<rect id="SVGID_1_" x="29.894" y="-0.524" width="557.013" height="193.562"/>
		</defs>
		<clipPath id="SVGID_2_">
			<use xlink:href="#SVGID_1_"  overflow="visible"/>
		</clipPath>
		<polygon clip-path="url(#SVGID_2_)" fill="#FFFFFF" points="37.122,62.945 579.584,63.046 579.584,181.429 37.122,181.328 		"/>
		<g clip-path="url(#SVGID_2_)">
			<defs>
				<rect id="SVGID_3_" x="29.894" y="-0.524" width="557.013" height="193.562"/>
			</defs>
			<clipPath id="SVGID_4_">
				<use xlink:href="#SVGID_3_"  overflow="visible"/>
			</clipPath>
			<polygon clip-path="url(#SVGID_4_)" fill="none" stroke="#676767" stroke-width="8.822" points="37.122,62.945 579.584,63.046 
				579.584,181.429 37.122,181.328 			"/>
		</g>
		<polygon clip-path="url(#SVGID_2_)" fill="#647BBC" points="299.548,75.617 566.677,75.718 566.677,168.766 299.548,168.666 		"/>
		<path clip-path="url(#SVGID_2_)" fill="#647BBC" d="M67.226,99.982h8.604v42.294h-8.604V99.982z M75.83,108.442h8.604v8.46H75.83
			V108.442z M84.435,116.901h8.605v8.459h-8.605V116.901z M93.04,108.442h8.604v8.46H93.04V108.442z M101.645,99.982h8.605v42.294
			h-8.605V99.982z"/>
		<path clip-path="url(#SVGID_2_)" fill="#647BBC" d="M127.666,142.277v-33.835h8.604v8.459h17.209v-8.459h8.604v33.835h-8.604
			V125.36H136.27v16.917H127.666z M136.27,108.442h17.209v-8.458H136.27V108.442z"/>
		<path clip-path="url(#SVGID_2_)" fill="#647BBC" d="M179.086,142.277V99.982h25.814v8.459h-17.21v25.377h17.21v8.458H179.086z
			 M213.505,133.819h-8.604v-25.377h8.604V133.819z"/>
		<polygon clip-path="url(#SVGID_2_)" fill="#647BBC" points="256.528,108.442 239.319,108.442 239.319,116.901 256.528,116.901 
			256.528,125.36 239.319,125.36 239.319,133.819 256.528,133.819 256.528,142.277 230.714,142.277 230.714,99.983 256.528,99.983 
					"/>
		<rect x="325.366" y="99.982" clip-path="url(#SVGID_2_)" fill="#FFFFFF" width="8.605" height="42.294"/>
		<path clip-path="url(#SVGID_2_)" fill="#FFFFFF" d="M351.18,99.982h8.604v42.294h-8.604V99.982z M359.784,108.442h8.604v8.46
			h-8.604V108.442z M368.389,116.901h8.604v8.459h-8.604V116.901z M376.993,125.36h8.606v8.459h-8.606V125.36z M385.6,99.982h8.602
			v42.294H385.6V99.982z"/>
		<g clip-path="url(#SVGID_2_)">
			<defs>
				<rect id="SVGID_5_" x="428.176" y="8.481" width="139.553" height="183.872"/>
			</defs>
			<clipPath id="SVGID_6_">
				<use xlink:href="#SVGID_5_"  overflow="visible"/>
			</clipPath>
			<path clip-path="url(#SVGID_6_)" fill-rule="evenodd" clip-rule="evenodd" fill="#6DBA46" d="M497.997,53.414
				c-7.884-3.858-16.252-6.509-24.552-9.186c-5.115-1.651-7.38-4.161-7.948-9.528c-0.819-7.737-2.483-15.391-3.969-23.046
				c-0.575-2.969-0.269-3.875,2.979-2.628c9.467,3.634,19.031,7.02,28.557,10.502c1.963,11.371,3.927,22.742,5.886,34.113
				c-0.002,0,0.237,0.147,0.237,0.147C498.65,54.108,498.289,53.873,497.997,53.414"/>
			<path clip-path="url(#SVGID_6_)" fill-rule="evenodd" clip-rule="evenodd" fill="#6DBA46" d="M498.056,53.536
				c6.552-2.523,13.405-4.054,20.204-5.608c4.194-0.959,6.176-2.801,7.001-7.041c1.192-6.107,3.054-12.092,4.771-18.089
				c0.665-2.325,0.485-3.069-2.192-2.303c-7.797,2.238-15.655,4.268-23.49,6.38c-2.356,8.925-4.714,17.851-7.067,26.775
				c0,0.001-0.2,0.102-0.2,0.102C497.486,54.044,497.791,53.88,498.056,53.536"/>
			<path clip-path="url(#SVGID_6_)" fill-rule="evenodd" clip-rule="evenodd" fill="#CC2729" d="M427.547,167.635
				c0-15.646,0.102-30.12,0.102-45.767c1.117-1.003,2.502-1.132,3.9-1.138c4.415-0.018,8.832-0.146,13.243,0.093
				c4.715,0.256,5.131-0.087,5.146-4.974c0.037-11.352,0-22.707,0.021-34.059c0.005-1.882-0.178-3.792,0.54-5.616
				c0.221-0.452,0.553-0.795,0.989-1.041c1.171-0.562,2.436-0.609,3.694-0.613c12.966-0.039,25.934-0.042,38.899,0
				c1.135,0.003,2.269,0.059,3.345,0.486c0.465,0.205,0.834,0.525,1.11,0.948c0.993,7.461,1.418,14.919-0.226,22.356
				c-1.42,1.364-3.239,1.192-4.979,1.218c-4.524,0.069-9.051,0.051-13.575,0.022c-2.867-0.019-4.081,1.235-4.031,4.097
				c0.074,4.273,0.122,8.551-0.019,12.82c-0.1,3.031,1.039,4.36,4.154,4.273c4.268-0.119,8.547-0.071,12.819-0.002
				c1.61,0.026,3.31-0.15,4.605,1.179c0.208,0.516,0.07,0.905-0.411,1.179c-3.748,1.333-7.625,0.552-11.441,0.671
				c-3.595,0.111-7.197,0.125-10.792-0.034c-6.034,0.15-12.073,0.119-18.105,0.025c-3-0.047-4.403,0.927-4.28,4.105
				c0.16,4.144,0.092,8.3,0.023,12.449c-0.044,2.707,1.108,3.873,3.821,3.854c4.525-0.034,9.056-0.093,13.582,0.032
				c4.857,0.135,5.947,1.242,6.052,6.124c0.091,4.275-0.017,8.553,0.038,12.828c0.054,4.122,0.364,4.413,4.595,4.473
				c4.905,0.07,9.811-0.082,14.713,0.087c1.012,0.035,2.003,0.215,2.863,0.818c2.249,3.889,1.049,8.056,0.972,12.13
				c-2.556,4.7-6.796,7.845-10.625,11.365c-0.746,0.685-1.85,0.677-2.87,0.619c-11.451-0.131-22.896,0.272-34.339-0.209
				c-1.254-1.328-1.103-3.018-1.127-4.631c-0.06-4.147,0.006-8.295-0.025-12.442c-0.051-6.553-0.244-6.51-5.306-6.539
				c-4.146-0.022-8.295,0.021-12.441-0.019C427.547,168.803,427.547,169.339,427.547,167.635"/>
			<path clip-path="url(#SVGID_6_)" fill-rule="evenodd" clip-rule="evenodd" fill="#EC3E28" d="M427.648,75.686
				c7.82-0.009,15.641-0.019,23.46-0.028c0.004,14.248-0.07,28.498,0.074,42.745c0.03,3.035-1.259,4.4-3.931,3.979
				c-6.532-1.03-13.077-0.16-19.604-0.513V75.686z"/>
			<path clip-path="url(#SVGID_6_)" fill-rule="evenodd" clip-rule="evenodd" fill="#F69E7F" d="M568.467,168.808
				c-0.277-0.03-0.553-0.06-0.83-0.089c-0.943-0.989-1.069-2.249-1.065-3.504c0.035-13.896-0.296-27.793,0.157-41.688
				c0.092-0.473,0.27-0.917,0.519-1.329c0.313-0.448,0.722-0.559,1.22-0.33V168.808z"/>
			<path clip-path="url(#SVGID_6_)" fill-rule="evenodd" clip-rule="evenodd" fill="#E08E75" d="M568.467,121.868
				c-0.221,0.021-0.442,0.032-0.664,0.033c-1.402-1.241-1.276-2.946-1.283-4.554c-0.053-12.437-0.051-24.875-0.003-37.313
				c0.006-1.499-0.017-3.042,1.127-4.259c0.274-0.03,0.548-0.06,0.823-0.09V121.868z"/>
			<path clip-path="url(#SVGID_6_)" fill-rule="evenodd" clip-rule="evenodd" fill="#CD2629" d="M567.644,75.775
				c0.052,15.376,0.106,30.75,0.158,46.125l-0.231-0.051c-1.167,1.198-2.702,1.176-4.183,1.179
				c-5.348,0.008-10.696,0.153-16.042-0.068c-3.166-0.294-4.159-2.365-4.229-5.191c-0.105-4.264-0.002-8.528-0.058-12.793
				c-0.056-4.35-0.312-4.597-4.773-4.641c-4.014-0.039-8.028,0.044-12.041-0.04c-1.879-0.039-3.812-0.036-5.123-1.773
				c-1.552-4.899-0.604-9.934-0.732-14.905c-0.175-6.745-0.046-6.747-6.828-6.752c-3.63-0.003-7.26,0.024-10.891-0.015
				c-1.627-0.019-3.281,0.018-4.617-1.169l0.005,0.006c-0.799-0.894-1.094-1.983-1.093-3.139c0.003-6.413-0.343-12.83,0.194-19.239
				c0.121-0.471,0.339-0.893,0.647-1.266c14.384,0.01,28.769,0.112,43.149-0.042c2.896-0.031,3.603,0.781,3.489,3.567
				c-0.225,5.541,0.106,11.106-0.135,16.647c-0.128,2.951,0.9,3.585,3.657,3.513C554.523,75.562,561.084,75.738,567.644,75.775"/>
			<path clip-path="url(#SVGID_6_)" fill-rule="evenodd" clip-rule="evenodd" fill="#BF2229" d="M497.313,122.577
				c-4.272-1.534-8.69-0.579-13.032-0.655c-9.693-0.171-9.695-0.054-9.695-9.625c0-3.531,0.075-7.063-0.022-10.591
				c-0.067-2.457,1-3.36,3.398-3.331c6.684,0.083,13.366,0.034,20.051,0.038c0.163,0.166,0.326,0.331,0.493,0.494
				c1.333,3.523,0.641,7.192,0.674,10.79c0.1,11.013,0.037,10.942,11.21,11.053c3.71,0.037,7.521-0.76,11.132,0.831
				c0.362,0.345,0.623,0.755,0.793,1.225c0.846,6.658,0.372,13.337,0.282,20.007c-0.027,2.05-0.942,3.989-3.149,4.112
				c-7.13,0.399-14.293,1.204-21.382-0.508c-0.673-0.65-0.962-1.487-0.967-2.381C497.064,136.881,496.667,129.723,497.313,122.577"
				/>
			<path clip-path="url(#SVGID_6_)" fill-rule="evenodd" clip-rule="evenodd" fill="#EC3E28" d="M497.808,52.043
				c0.369,0.191-0.159-0.006,0.21,0.186c0.014,7.819,0.027,15.639,0.042,23.458c-15.658-0.004-31.317-0.009-46.974-0.013
				c0.046-6.554,0.269-13.114,0.062-19.661c-0.097-3.072,0.621-4.053,3.869-4c12.607,0.205,25.22,0.096,37.829,0.064
				C494.202,52.075,494.202,52.075,497.808,52.043"/>
			<path clip-path="url(#SVGID_6_)" fill-rule="evenodd" clip-rule="evenodd" fill="#E43629" d="M497.313,122.577
				c1.423,1.787,0.655,3.874,0.694,5.81c0.12,5.897,0.06,11.799,0.069,17.698c0.392,0.494,0.826,1.015,0.853,1.645
				c0.286,6.852,0.93,13.712-0.366,20.537c-0.164,0.181-0.331,0.359-0.495,0.54c-6.681,0.001-13.362-0.094-20.038,0.051
				c-2.569,0.055-3.587-0.659-3.498-3.384c0.181-5.539-0.027-11.09,0.087-16.633c0.056-2.638-1.012-3.58-3.589-3.528
				c-5.544,0.108-11.092-0.058-16.635,0.074c-2.384,0.057-3.398-0.596-3.325-3.167c0.159-5.542,0.141-11.091,0.007-16.633
				c-0.058-2.366,0.857-3.035,3.101-2.998c6.805,0.109,13.61,0.05,20.415,0.055c1.289,1.469,1.132,3.28,1.15,5.032
				c0.046,4.285,0.048,8.571,0.009,12.855c-0.022,2.508,0.959,3.694,3.569,3.651c4.409-0.071,8.823-0.071,13.231,0
				c2.601,0.042,3.609-1.115,3.584-3.638c-0.041-4.284-0.039-8.569,0.009-12.854c0.02-1.75-0.147-3.563,1.159-5.026L497.313,122.577
				z"/>
			<path clip-path="url(#SVGID_6_)" fill-rule="evenodd" clip-rule="evenodd" fill="#EC3E28" d="M544.41,169.021
				c-0.016,6.81-0.146,13.623,0.011,20.428c0.055,2.397-0.69,2.93-2.974,2.903c-9.962-0.124-19.928-0.101-29.891-0.011
				c-1.943,0.016-3.302-0.61-4.621-1.98c-2.885-2.993-5.917-5.845-8.889-8.756c0.007-4.266,0.013-8.533,0.021-12.799l-0.013,0.012
				c1.104-1.004,2.475-1.166,3.871-1.171c12.928-0.054,25.855-0.069,38.783,0.007c0.879,0.006,1.754,0.104,2.591,0.413
				C543.774,168.263,544.143,168.583,544.41,169.021"/>
			<path clip-path="url(#SVGID_6_)" fill-rule="evenodd" clip-rule="evenodd" fill="#E43629" d="M498.054,75.681
				c6.763,0.002,13.524,0.089,20.284-0.041c2.452-0.047,3.284,0.757,3.233,3.223c-0.135,6.508-0.045,13.021-0.043,19.533
				c0.232,0.532,0.073,0.882-0.479,1.056c-6.489,0.246-12.98,0.057-19.472,0.054c-1.263,0-2.498-0.19-3.486-1.105l-0.078,0.011
				C498.026,90.836,498.04,83.258,498.054,75.681"/>
			<path clip-path="url(#SVGID_6_)" fill-rule="evenodd" clip-rule="evenodd" fill="#F15638" d="M497.305,122.662
				c0.002,6.402-0.085,12.807,0.049,19.207c0.052,2.498-0.552,3.63-3.322,3.532c-5.392-0.188-10.799-0.192-16.191,0.001
				c-2.801,0.101-3.346-1.085-3.296-3.554c0.129-6.4,0.047-12.804,0.049-19.206C482.163,122.649,489.733,122.655,497.305,122.662"/>
			<path clip-path="url(#SVGID_6_)" fill-rule="evenodd" clip-rule="evenodd" fill="#EC3E28" d="M547.258,121.903
				c6.771-0.018,13.542-0.036,20.312-0.053c0.022,15.623,0.045,31.246,0.066,46.869c-7.548,0.012-15.093,0.022-22.638,0.034
				c-1.165-1.224-1.051-2.777-1.053-4.279c-0.022-12.585-0.009-25.173-0.018-37.759C543.928,124.29,544.138,122.117,547.258,121.903
				"/>
			<path clip-path="url(#SVGID_6_)" fill-rule="evenodd" clip-rule="evenodd" fill="#E33629" d="M547.258,121.903
				c-2.136,0.812-2.303,2.5-2.293,4.513c0.065,14.112,0.034,28.223,0.034,42.336c-0.149,0.196-0.345,0.286-0.589,0.269
				c-0.071-0.104-0.149-0.202-0.235-0.297c-1.387-1.593-1.106-3.552-1.111-5.41c-0.039-11.46,0.003-22.923-0.029-34.383
				c-0.015-4.861-0.251-5.068-5.142-5.104c-3.905-0.029-7.81,0.02-11.713-0.022c-1.636-0.02-3.303,0.019-4.638-1.194
				c-0.01-0.249-0.019-0.499-0.023-0.747c-0.597-0.677-0.989-1.467-1.03-2.364c-0.281-5.996-0.269-11.993-0.006-17.989
				c0.037-0.884,0.319-1.722,1.036-2.336c0.002-0.259,0.007-0.519,0.01-0.776c5.056,1.585,10.245,0.57,15.367,0.704
				c7.346,0.191,7.35,0.048,7.35,7.421c0,4.035,0.061,8.069-0.021,12.101C544.181,120.804,544.954,122.005,547.258,121.903"/>
			<path clip-path="url(#SVGID_6_)" fill-rule="evenodd" clip-rule="evenodd" fill="#CD2629" d="M521.542,122.61
				c6.428,0.005,12.86,0.113,19.286-0.038c2.614-0.061,3.494,0.743,3.469,3.417c-0.135,14.244-0.098,28.49-0.122,42.734
				c-15.373,0.031-30.747,0.062-46.119,0.094c0.007-7.578,0.014-15.156,0.021-22.734c6.525,0.002,13.053-0.102,19.575,0.056
				c2.971,0.073,3.987-1.023,3.923-3.955C521.429,135.664,521.537,129.136,521.542,122.61"/>
			<path clip-path="url(#SVGID_6_)" fill-rule="evenodd" clip-rule="evenodd" fill="#F15638" d="M521.519,99.173
				c0,7.563,0,15.126,0.001,22.69c-6.768,0.004-13.536-0.083-20.3,0.061c-2.475,0.052-3.261-0.767-3.208-3.223
				c0.147-6.764,0.068-13.532,0.078-20.3c6.363,0,12.725,0.006,19.087-0.002C518.675,98.397,520.181,98.298,521.519,99.173"/>
		</g>
		<path clip-path="url(#SVGID_2_)" fill="#FFFFFF" d="M444.449,106.483h5.855v28.781h-5.855V106.483z M450.304,112.238h5.855v5.757
			h-5.855V112.238z M456.159,117.995h5.854v5.756h-5.854V117.995z M462.014,123.751h5.856v5.756h-5.856V123.751z M467.869,106.483
			h5.855v28.781h-5.855V106.483z"/>
		<path clip-path="url(#SVGID_2_)" fill="#FFFFFF" d="M485.436,106.483h5.855v5.755h-5.855V106.483z M491.291,112.238h5.855v5.757
			h-5.855V112.238z M497.146,117.995h5.856v17.268h-5.856V117.995z M503.002,112.238h5.854v5.757h-5.854V112.238z M508.856,106.483
			h5.855v5.755h-5.855V106.483z"/>
		<path clip-path="url(#SVGID_2_)" fill="#FFFFFF" d="M532.278,129.507h-5.856v-17.269h5.856V129.507z M543.988,112.238h-11.71
			v-5.755h11.71V112.238z M543.988,135.264h-11.71v-5.756h11.71V135.264z M549.844,117.995h-5.855v-5.757h5.855V117.995z
			 M549.844,129.507h-5.855v-5.756h5.855V129.507z"/>
	</g>
</g>
<g>
	<g>
		<defs>
			<rect id="SVGID_7_" x="31.144" y="194.816" width="557.013" height="193.562"/>
		</defs>
		<clipPath id="SVGID_8_">
			<use xlink:href="#SVGID_7_"  overflow="visible"/>
		</clipPath>
		<polygon clip-path="url(#SVGID_8_)" fill="#FFFFFF" points="38.372,258.286 580.834,258.386 580.834,376.77 38.372,376.668 		"/>
		<g clip-path="url(#SVGID_8_)">
			<defs>
				<rect id="SVGID_9_" x="31.144" y="194.816" width="557.013" height="193.562"/>
			</defs>
			<clipPath id="SVGID_10_">
				<use xlink:href="#SVGID_9_"  overflow="visible"/>
			</clipPath>
			<polygon clip-path="url(#SVGID_10_)" fill="none" stroke="#676767" stroke-width="8.822" points="38.372,258.286 
				580.834,258.386 580.834,376.77 38.372,376.668 			"/>
		</g>
		<polygon clip-path="url(#SVGID_8_)" fill="#647BBC" points="300.798,270.958 567.927,271.058 567.927,364.106 300.798,364.006 		
			"/>
		<path clip-path="url(#SVGID_8_)" fill="#647BBC" d="M68.476,295.323h8.604v42.294h-8.604V295.323z M77.08,303.782h8.604v8.46
			H77.08V303.782z M85.685,312.241h8.605v8.459h-8.605V312.241z M94.29,303.782h8.604v8.46H94.29V303.782z M102.895,295.323h8.605
			v42.294h-8.605V295.323z"/>
		<path clip-path="url(#SVGID_8_)" fill="#647BBC" d="M128.916,337.618v-33.835h8.604v8.459h17.209v-8.459h8.604v33.835h-8.604
			v-16.917H137.52v16.917H128.916z M137.52,303.782h17.209v-8.458H137.52V303.782z"/>
		<path clip-path="url(#SVGID_8_)" fill="#647BBC" d="M180.336,337.618v-42.295h25.814v8.459h-17.21v25.377h17.21v8.458H180.336z
			 M214.755,329.16h-8.604v-25.377h8.604V329.16z"/>
		<polygon clip-path="url(#SVGID_8_)" fill="#647BBC" points="257.778,303.782 240.569,303.782 240.569,312.242 257.778,312.242 
			257.778,320.7 240.569,320.7 240.569,329.159 257.778,329.159 257.778,337.617 231.964,337.617 231.964,295.323 257.778,295.323 
					"/>
		<rect x="326.616" y="295.323" clip-path="url(#SVGID_8_)" fill="#FFFFFF" width="8.605" height="42.294"/>
		<path clip-path="url(#SVGID_8_)" fill="#FFFFFF" d="M352.43,295.323h8.604v42.294h-8.604V295.323z M361.034,303.782h8.604v8.46
			h-8.604V303.782z M369.639,312.241h8.604v8.459h-8.604V312.241z M378.243,320.701h8.606v8.459h-8.606V320.701z M386.85,295.323
			h8.602v42.294h-8.602V295.323z"/>
		<g clip-path="url(#SVGID_8_)">
			<defs>
				<rect id="SVGID_11_" x="429.426" y="203.822" width="139.553" height="183.872"/>
			</defs>
			<clipPath id="SVGID_12_">
				<use xlink:href="#SVGID_11_"  overflow="visible"/>
			</clipPath>
			<path clip-path="url(#SVGID_12_)" fill-rule="evenodd" clip-rule="evenodd" fill="#6DBA46" d="M499.247,248.754
				c-7.884-3.858-16.252-6.509-24.552-9.186c-5.115-1.651-7.38-4.161-7.948-9.528c-0.819-7.737-2.483-15.391-3.969-23.046
				c-0.575-2.969-0.269-3.875,2.979-2.628c9.467,3.634,19.031,7.02,28.557,10.502c1.963,11.371,3.927,22.742,5.886,34.113
				c-0.002,0,0.237,0.147,0.237,0.147C499.9,249.448,499.539,249.213,499.247,248.754"/>
			<path clip-path="url(#SVGID_12_)" fill-rule="evenodd" clip-rule="evenodd" fill="#6DBA46" d="M499.306,248.876
				c6.552-2.523,13.405-4.054,20.204-5.608c4.194-0.959,6.176-2.801,7.001-7.041c1.192-6.107,3.054-12.092,4.771-18.089
				c0.665-2.325,0.485-3.069-2.192-2.303c-7.797,2.238-15.655,4.268-23.49,6.38c-2.356,8.925-4.714,17.851-7.067,26.775
				c0,0-0.2,0.101-0.2,0.101C498.736,249.384,499.041,249.221,499.306,248.876"/>
			<path clip-path="url(#SVGID_12_)" fill-rule="evenodd" clip-rule="evenodd" fill="#CC2729" d="M428.797,362.975
				c0-15.646,0.102-30.12,0.102-45.767c1.117-1.003,2.502-1.132,3.9-1.138c4.415-0.018,8.832-0.146,13.243,0.093
				c4.715,0.256,5.131-0.087,5.146-4.974c0.037-11.352,0-22.707,0.021-34.059c0.005-1.882-0.178-3.792,0.54-5.616
				c0.221-0.452,0.553-0.795,0.989-1.041c1.171-0.562,2.436-0.609,3.694-0.613c12.966-0.039,25.934-0.042,38.899,0.001
				c1.135,0.003,2.269,0.059,3.345,0.486c0.465,0.205,0.834,0.525,1.11,0.948c0.993,7.461,1.418,14.919-0.226,22.356
				c-1.42,1.364-3.239,1.192-4.979,1.218c-4.524,0.069-9.051,0.051-13.575,0.022c-2.867-0.019-4.081,1.235-4.031,4.097
				c0.074,4.273,0.122,8.551-0.019,12.82c-0.1,3.031,1.039,4.36,4.154,4.273c4.268-0.119,8.547-0.071,12.819-0.002
				c1.61,0.026,3.31-0.15,4.605,1.179c0.208,0.516,0.07,0.905-0.411,1.179c-3.748,1.333-7.625,0.552-11.441,0.671
				c-3.595,0.112-7.197,0.125-10.792-0.034c-6.034,0.15-12.073,0.119-18.105,0.025c-3-0.047-4.403,0.927-4.28,4.105
				c0.16,4.144,0.092,8.3,0.023,12.448c-0.044,2.708,1.108,3.874,3.821,3.854c4.525-0.034,9.056-0.093,13.582,0.031
				c4.857,0.135,5.947,1.242,6.052,6.124c0.091,4.275-0.017,8.553,0.038,12.828c0.054,4.122,0.364,4.413,4.595,4.473
				c4.905,0.07,9.811-0.082,14.713,0.087c1.012,0.035,2.003,0.215,2.863,0.818c2.249,3.889,1.049,8.056,0.972,12.13
				c-2.556,4.7-6.796,7.845-10.625,11.365c-0.746,0.685-1.85,0.677-2.87,0.619c-11.451-0.132-22.896,0.272-34.339-0.209
				c-1.254-1.328-1.103-3.018-1.127-4.631c-0.06-4.147,0.006-8.295-0.025-12.442c-0.051-6.553-0.244-6.51-5.306-6.539
				c-4.146-0.022-8.295,0.021-12.441-0.019C428.797,364.144,428.797,364.679,428.797,362.975"/>
			<path clip-path="url(#SVGID_12_)" fill-rule="evenodd" clip-rule="evenodd" fill="#EC3E28" d="M428.898,271.026
				c7.82-0.009,15.641-0.018,23.46-0.028c0.004,14.248-0.07,28.498,0.074,42.745c0.03,3.035-1.259,4.4-3.931,3.979
				c-6.532-1.03-13.077-0.16-19.604-0.513V271.026z"/>
			<path clip-path="url(#SVGID_12_)" fill-rule="evenodd" clip-rule="evenodd" fill="#F69E7F" d="M569.717,364.148
				c-0.277-0.03-0.553-0.06-0.83-0.089c-0.943-0.989-1.069-2.249-1.065-3.504c0.035-13.896-0.296-27.793,0.157-41.688
				c0.092-0.473,0.27-0.917,0.519-1.329c0.313-0.448,0.722-0.559,1.22-0.33V364.148z"/>
			<path clip-path="url(#SVGID_12_)" fill-rule="evenodd" clip-rule="evenodd" fill="#E08E75" d="M569.717,317.208
				c-0.221,0.021-0.442,0.032-0.664,0.033c-1.402-1.241-1.276-2.946-1.283-4.554c-0.053-12.437-0.051-24.875-0.003-37.313
				c0.006-1.499-0.017-3.042,1.127-4.259c0.274-0.03,0.548-0.06,0.823-0.09V317.208z"/>
			<path clip-path="url(#SVGID_12_)" fill-rule="evenodd" clip-rule="evenodd" fill="#CD2629" d="M568.894,271.116
				c0.052,15.376,0.106,30.75,0.158,46.125l-0.231-0.051c-1.167,1.198-2.702,1.175-4.183,1.178
				c-5.348,0.008-10.696,0.153-16.042-0.068c-3.166-0.294-4.159-2.365-4.229-5.191c-0.105-4.264-0.002-8.528-0.058-12.793
				c-0.056-4.35-0.312-4.597-4.773-4.641c-4.014-0.039-8.028,0.044-12.041-0.04c-1.879-0.039-3.812-0.036-5.123-1.773
				c-1.552-4.899-0.604-9.935-0.732-14.905c-0.175-6.744-0.046-6.746-6.828-6.751c-3.63-0.003-7.26,0.024-10.891-0.015
				c-1.627-0.019-3.281,0.018-4.617-1.169l0.005,0.006c-0.799-0.895-1.094-1.983-1.093-3.139c0.003-6.413-0.343-12.83,0.194-19.239
				c0.121-0.471,0.339-0.893,0.647-1.266c14.384,0.01,28.769,0.112,43.149-0.042c2.896-0.031,3.603,0.781,3.489,3.567
				c-0.225,5.542,0.106,11.106-0.135,16.647c-0.128,2.951,0.9,3.585,3.657,3.513C555.773,270.903,562.334,271.079,568.894,271.116"
				/>
			<path clip-path="url(#SVGID_12_)" fill-rule="evenodd" clip-rule="evenodd" fill="#BF2229" d="M498.563,317.917
				c-4.272-1.534-8.69-0.579-13.032-0.655c-9.693-0.171-9.695-0.054-9.695-9.625c0-3.531,0.075-7.063-0.022-10.591
				c-0.067-2.457,1-3.36,3.398-3.331c6.684,0.083,13.366,0.034,20.051,0.038c0.163,0.166,0.326,0.331,0.493,0.494
				c1.333,3.523,0.641,7.192,0.674,10.79c0.1,11.013,0.037,10.942,11.21,11.053c3.71,0.037,7.521-0.76,11.132,0.831
				c0.362,0.345,0.623,0.755,0.793,1.225c0.846,6.658,0.372,13.337,0.282,20.007c-0.027,2.05-0.942,3.989-3.149,4.112
				c-7.13,0.399-14.293,1.204-21.382-0.508c-0.673-0.65-0.962-1.487-0.967-2.381C498.314,332.221,497.917,325.063,498.563,317.917"
				/>
			<path clip-path="url(#SVGID_12_)" fill-rule="evenodd" clip-rule="evenodd" fill="#EC3E28" d="M499.058,247.383
				c0.369,0.191-0.159-0.006,0.21,0.186c0.014,7.819,0.027,15.639,0.042,23.458c-15.658-0.004-31.317-0.009-46.974-0.013
				c0.046-6.555,0.269-13.114,0.062-19.661c-0.097-3.072,0.621-4.053,3.869-4c12.607,0.205,25.22,0.096,37.829,0.064
				C495.452,247.415,495.452,247.415,499.058,247.383"/>
			<path clip-path="url(#SVGID_12_)" fill-rule="evenodd" clip-rule="evenodd" fill="#E43629" d="M498.563,317.917
				c1.423,1.787,0.655,3.874,0.694,5.81c0.12,5.897,0.06,11.799,0.069,17.698c0.392,0.494,0.826,1.015,0.853,1.645
				c0.286,6.852,0.93,13.712-0.366,20.537c-0.164,0.181-0.331,0.359-0.495,0.54c-6.681,0-13.362-0.094-20.038,0.051
				c-2.569,0.055-3.587-0.659-3.498-3.384c0.181-5.539-0.027-11.09,0.087-16.633c0.056-2.638-1.012-3.58-3.589-3.528
				c-5.544,0.108-11.092-0.058-16.635,0.074c-2.384,0.057-3.398-0.596-3.325-3.167c0.159-5.542,0.141-11.091,0.007-16.633
				c-0.058-2.366,0.857-3.035,3.101-2.998c6.805,0.109,13.61,0.05,20.415,0.055c1.289,1.469,1.132,3.28,1.15,5.032
				c0.046,4.285,0.048,8.571,0.009,12.855c-0.022,2.508,0.959,3.694,3.569,3.651c4.409-0.071,8.823-0.071,13.231,0
				c2.601,0.042,3.609-1.115,3.584-3.638c-0.041-4.284-0.039-8.569,0.009-12.854c0.02-1.75-0.147-3.563,1.159-5.026L498.563,317.917
				z"/>
			<path clip-path="url(#SVGID_12_)" fill-rule="evenodd" clip-rule="evenodd" fill="#EC3E28" d="M545.66,364.361
				c-0.016,6.81-0.146,13.623,0.011,20.428c0.055,2.397-0.69,2.93-2.974,2.903c-9.962-0.124-19.928-0.101-29.891-0.011
				c-1.943,0.017-3.302-0.61-4.621-1.98c-2.885-2.993-5.917-5.845-8.889-8.756c0.007-4.266,0.013-8.533,0.021-12.799l-0.013,0.012
				c1.104-1.004,2.475-1.166,3.871-1.172c12.928-0.054,25.855-0.068,38.783,0.007c0.879,0.006,1.754,0.104,2.591,0.413
				C545.024,363.604,545.393,363.924,545.66,364.361"/>
			<path clip-path="url(#SVGID_12_)" fill-rule="evenodd" clip-rule="evenodd" fill="#E43629" d="M499.304,271.021
				c6.763,0.002,13.524,0.089,20.284-0.041c2.452-0.047,3.284,0.757,3.233,3.223c-0.135,6.508-0.045,13.021-0.043,19.533
				c0.232,0.532,0.073,0.882-0.479,1.056c-6.489,0.246-12.98,0.057-19.472,0.054c-1.263,0-2.498-0.19-3.486-1.105l-0.078,0.011
				C499.276,286.176,499.29,278.599,499.304,271.021"/>
			<path clip-path="url(#SVGID_12_)" fill-rule="evenodd" clip-rule="evenodd" fill="#F15638" d="M498.555,318.002
				c0.002,6.402-0.085,12.807,0.049,19.207c0.052,2.498-0.552,3.63-3.322,3.532c-5.392-0.188-10.799-0.192-16.191,0.001
				c-2.801,0.101-3.346-1.085-3.296-3.554c0.129-6.4,0.047-12.804,0.049-19.206C483.413,317.989,490.983,317.996,498.555,318.002"/>
			<path clip-path="url(#SVGID_12_)" fill-rule="evenodd" clip-rule="evenodd" fill="#EC3E28" d="M548.508,317.243
				c6.771-0.018,13.542-0.036,20.312-0.053c0.022,15.622,0.045,31.246,0.066,46.868c-7.548,0.012-15.093,0.022-22.638,0.034
				c-1.165-1.224-1.051-2.777-1.053-4.279c-0.022-12.585-0.009-25.173-0.018-37.759C545.178,319.63,545.388,317.457,548.508,317.243
				"/>
			<path clip-path="url(#SVGID_12_)" fill-rule="evenodd" clip-rule="evenodd" fill="#E33629" d="M548.508,317.243
				c-2.136,0.812-2.303,2.5-2.293,4.513c0.065,14.112,0.034,28.223,0.034,42.336c-0.149,0.196-0.345,0.286-0.589,0.269
				c-0.071-0.104-0.149-0.202-0.235-0.297c-1.387-1.593-1.106-3.552-1.111-5.41c-0.039-11.46,0.003-22.923-0.029-34.383
				c-0.015-4.861-0.251-5.068-5.142-5.104c-3.905-0.029-7.81,0.02-11.713-0.022c-1.636-0.02-3.303,0.019-4.638-1.194
				c-0.01-0.249-0.019-0.499-0.023-0.747c-0.597-0.677-0.989-1.467-1.03-2.364c-0.281-5.996-0.269-11.993-0.006-17.989
				c0.037-0.884,0.319-1.722,1.036-2.336c0.002-0.259,0.007-0.518,0.01-0.776c5.056,1.585,10.245,0.57,15.367,0.704
				c7.346,0.191,7.35,0.048,7.35,7.421c0,4.035,0.061,8.069-0.021,12.101C545.431,316.144,546.204,317.346,548.508,317.243"/>
			<path clip-path="url(#SVGID_12_)" fill-rule="evenodd" clip-rule="evenodd" fill="#CD2629" d="M522.792,317.951
				c6.428,0.005,12.86,0.113,19.286-0.038c2.614-0.061,3.494,0.743,3.469,3.417c-0.135,14.244-0.098,28.49-0.122,42.734
				c-15.373,0.031-30.747,0.062-46.119,0.094c0.007-7.578,0.014-15.156,0.021-22.734c6.525,0.003,13.053-0.102,19.575,0.056
				c2.971,0.073,3.987-1.023,3.923-3.955C522.679,331.004,522.787,324.477,522.792,317.951"/>
			<path clip-path="url(#SVGID_12_)" fill-rule="evenodd" clip-rule="evenodd" fill="#F15638" d="M522.769,294.514
				c0,7.563,0,15.126,0.001,22.69c-6.768,0.004-13.536-0.083-20.3,0.061c-2.475,0.052-3.261-0.767-3.208-3.223
				c0.147-6.764,0.068-13.532,0.078-20.3c6.363,0,12.725,0.006,19.087-0.002C519.925,293.737,521.431,293.639,522.769,294.514"/>
		</g>
		<path clip-path="url(#SVGID_8_)" fill="#FFFFFF" d="M445.699,301.823h5.855v28.781h-5.855V301.823z M451.554,307.579h5.855v5.757
			h-5.855V307.579z M457.409,313.335h5.854v5.756h-5.854V313.335z M463.264,319.092h5.856v5.756h-5.856V319.092z M469.119,301.823
			h5.855v28.781h-5.855V301.823z"/>
		<path clip-path="url(#SVGID_8_)" fill="#FFFFFF" d="M486.686,301.823h5.855v5.755h-5.855V301.823z M492.541,307.579h5.855v5.757
			h-5.855V307.579z M498.396,313.335h5.856v17.268h-5.856V313.335z M504.252,307.579h5.854v5.757h-5.854V307.579z M510.106,301.823
			h5.855v5.755h-5.855V301.823z"/>
		<path clip-path="url(#SVGID_8_)" fill="#FFFFFF" d="M533.528,324.848h-5.856v-17.269h5.856V324.848z M545.238,307.579h-11.71
			v-5.755h11.71V307.579z M545.238,330.604h-11.71v-5.756h11.71V330.604z M551.094,313.335h-5.855v-5.757h5.855V313.335z
			 M551.094,324.848h-5.855v-5.756h5.855V324.848z"/>
	</g>
</g>
<g>
	<g>
		<defs>
			<rect id="SVGID_13_" x="28.644" y="394.246" width="557.013" height="193.562"/>
		</defs>
		<clipPath id="SVGID_14_">
			<use xlink:href="#SVGID_13_"  overflow="visible"/>
		</clipPath>
		<polygon clip-path="url(#SVGID_14_)" fill="#FFFFFF" points="35.872,457.715 578.334,457.815 578.334,576.199 35.872,576.098 		
			"/>
		<g clip-path="url(#SVGID_14_)">
			<defs>
				<rect id="SVGID_15_" x="28.644" y="394.246" width="557.013" height="193.562"/>
			</defs>
			<clipPath id="SVGID_16_">
				<use xlink:href="#SVGID_15_"  overflow="visible"/>
			</clipPath>
			<polygon clip-path="url(#SVGID_16_)" fill="none" stroke="#676767" stroke-width="8.822" points="35.872,457.715 
				578.334,457.815 578.334,576.199 35.872,576.098 			"/>
		</g>
		<polygon clip-path="url(#SVGID_14_)" fill="#647BBC" points="298.298,470.387 565.427,470.487 565.427,563.536 298.298,563.436 		
			"/>
		<path clip-path="url(#SVGID_14_)" fill="#647BBC" d="M65.976,494.753h8.604v42.294h-8.604V494.753z M74.58,503.212h8.604v8.46
			H74.58V503.212z M83.185,511.671h8.605v8.46h-8.605V511.671z M91.79,503.212h8.604v8.46H91.79V503.212z M100.395,494.753H109
			v42.294h-8.605V494.753z"/>
		<path clip-path="url(#SVGID_14_)" fill="#647BBC" d="M126.416,537.048v-33.836h8.604v8.459h17.209v-8.459h8.604v33.836h-8.604
			v-16.917H135.02v16.917H126.416z M135.02,503.212h17.209v-8.458H135.02V503.212z"/>
		<path clip-path="url(#SVGID_14_)" fill="#647BBC" d="M177.836,537.048v-42.295h25.814v8.459h-17.21v25.377h17.21v8.459H177.836z
			 M212.255,528.589h-8.604v-25.377h8.604V528.589z"/>
		<polygon clip-path="url(#SVGID_14_)" fill="#647BBC" points="255.278,503.212 238.069,503.212 238.069,511.671 255.278,511.671 
			255.278,520.13 238.069,520.13 238.069,528.589 255.278,528.589 255.278,537.047 229.464,537.047 229.464,494.753 
			255.278,494.753 		"/>
		<rect x="324.116" y="494.753" clip-path="url(#SVGID_14_)" fill="#FFFFFF" width="8.605" height="42.294"/>
		<path clip-path="url(#SVGID_14_)" fill="#FFFFFF" d="M349.93,494.753h8.604v42.294h-8.604V494.753z M358.534,503.212h8.604v8.46
			h-8.604V503.212z M367.139,511.671h8.604v8.46h-8.604V511.671z M375.743,520.131h8.606v8.458h-8.606V520.131z M384.35,494.753
			h8.602v42.294h-8.602V494.753z"/>
		<g clip-path="url(#SVGID_14_)">
			<defs>
				<rect id="SVGID_17_" x="426.926" y="403.251" width="139.553" height="183.872"/>
			</defs>
			<clipPath id="SVGID_18_">
				<use xlink:href="#SVGID_17_"  overflow="visible"/>
			</clipPath>
			<path clip-path="url(#SVGID_18_)" fill-rule="evenodd" clip-rule="evenodd" fill="#6DBA46" d="M496.747,448.184
				c-7.884-3.857-16.252-6.509-24.552-9.186c-5.115-1.65-7.38-4.161-7.948-9.528c-0.819-7.737-2.483-15.392-3.969-23.046
				c-0.575-2.969-0.269-3.875,2.979-2.629c9.467,3.635,19.031,7.02,28.557,10.502c1.963,11.371,3.927,22.742,5.886,34.113
				c-0.002,0,0.237,0.146,0.237,0.146C497.4,448.878,497.039,448.643,496.747,448.184"/>
			<path clip-path="url(#SVGID_18_)" fill-rule="evenodd" clip-rule="evenodd" fill="#6DBA46" d="M496.806,448.307
				c6.552-2.524,13.405-4.054,20.204-5.609c4.194-0.959,6.176-2.8,7.001-7.04c1.192-6.107,3.054-12.093,4.771-18.089
				c0.665-2.326,0.485-3.069-2.192-2.304c-7.797,2.237-15.655,4.268-23.49,6.38c-2.356,8.925-4.714,17.851-7.067,26.775
				c0,0.001-0.2,0.102-0.2,0.102C496.236,448.814,496.541,448.65,496.806,448.307"/>
			<path clip-path="url(#SVGID_18_)" fill-rule="evenodd" clip-rule="evenodd" fill="#CC2729" d="M426.297,562.405
				c0-15.646,0.102-30.12,0.102-45.767c1.117-1.003,2.502-1.133,3.9-1.139c4.415-0.018,8.832-0.146,13.243,0.093
				c4.715,0.257,5.131-0.087,5.146-4.974c0.037-11.352,0-22.707,0.021-34.059c0.005-1.882-0.178-3.793,0.54-5.616
				c0.221-0.452,0.553-0.796,0.989-1.041c1.171-0.562,2.436-0.609,3.694-0.613c12.966-0.038,25.934-0.041,38.899,0.001
				c1.135,0.003,2.269,0.06,3.345,0.485c0.465,0.205,0.834,0.525,1.11,0.949c0.993,7.461,1.418,14.919-0.226,22.355
				c-1.42,1.364-3.239,1.192-4.979,1.219c-4.524,0.069-9.051,0.052-13.575,0.022c-2.867-0.019-4.081,1.234-4.031,4.097
				c0.074,4.272,0.122,8.551-0.019,12.82c-0.1,3.031,1.039,4.36,4.154,4.273c4.268-0.119,8.547-0.071,12.819-0.002
				c1.61,0.026,3.31-0.15,4.605,1.179c0.208,0.516,0.07,0.905-0.411,1.179c-3.748,1.333-7.625,0.552-11.441,0.671
				c-3.595,0.111-7.197,0.125-10.792-0.034c-6.034,0.15-12.073,0.119-18.105,0.026c-3-0.047-4.403,0.927-4.28,4.104
				c0.16,4.144,0.092,8.3,0.023,12.448c-0.044,2.707,1.108,3.874,3.821,3.854c4.525-0.034,9.056-0.093,13.582,0.031
				c4.857,0.135,5.947,1.242,6.052,6.123c0.091,4.275-0.017,8.553,0.038,12.828c0.054,4.121,0.364,4.413,4.595,4.473
				c4.905,0.07,9.811-0.082,14.713,0.087c1.012,0.035,2.003,0.215,2.863,0.818c2.249,3.89,1.049,8.056,0.972,12.131
				c-2.556,4.699-6.796,7.845-10.625,11.364c-0.746,0.685-1.85,0.677-2.87,0.619c-11.451-0.132-22.896,0.272-34.339-0.209
				c-1.254-1.328-1.103-3.019-1.127-4.631c-0.06-4.148,0.006-8.296-0.025-12.442c-0.051-6.553-0.244-6.51-5.306-6.538
				c-4.146-0.022-8.295,0.021-12.441-0.02C426.297,563.573,426.297,564.109,426.297,562.405"/>
			<path clip-path="url(#SVGID_18_)" fill-rule="evenodd" clip-rule="evenodd" fill="#EC3E28" d="M426.398,470.456
				c7.82-0.01,15.641-0.019,23.46-0.028c0.004,14.248-0.07,28.497,0.074,42.745c0.03,3.034-1.259,4.399-3.931,3.979
				c-6.532-1.03-13.077-0.161-19.604-0.513V470.456z"/>
			<path clip-path="url(#SVGID_18_)" fill-rule="evenodd" clip-rule="evenodd" fill="#F69E7F" d="M567.217,563.578
				c-0.277-0.03-0.553-0.061-0.83-0.09c-0.943-0.989-1.069-2.249-1.065-3.504c0.035-13.896-0.296-27.793,0.157-41.688
				c0.092-0.474,0.27-0.916,0.519-1.328c0.313-0.449,0.722-0.559,1.22-0.33V563.578z"/>
			<path clip-path="url(#SVGID_18_)" fill-rule="evenodd" clip-rule="evenodd" fill="#E08E75" d="M567.217,516.639
				c-0.221,0.02-0.442,0.031-0.664,0.032c-1.402-1.241-1.276-2.946-1.283-4.554c-0.053-12.437-0.051-24.875-0.003-37.313
				c0.006-1.498-0.017-3.042,1.127-4.259c0.274-0.029,0.548-0.06,0.823-0.09V516.639z"/>
			<path clip-path="url(#SVGID_18_)" fill-rule="evenodd" clip-rule="evenodd" fill="#CD2629" d="M566.394,470.545
				c0.052,15.376,0.106,30.75,0.158,46.126l-0.231-0.051c-1.167,1.197-2.702,1.176-4.183,1.179
				c-5.348,0.008-10.696,0.152-16.042-0.068c-3.166-0.295-4.159-2.365-4.229-5.191c-0.105-4.264-0.002-8.528-0.058-12.793
				c-0.056-4.35-0.312-4.598-4.773-4.641c-4.014-0.039-8.028,0.044-12.041-0.04c-1.879-0.039-3.812-0.036-5.123-1.773
				c-1.552-4.899-0.604-9.935-0.732-14.905c-0.175-6.744-0.046-6.746-6.828-6.752c-3.63-0.002-7.26,0.024-10.891-0.015
				c-1.627-0.018-3.281,0.018-4.617-1.169l0.005,0.006c-0.799-0.895-1.094-1.983-1.093-3.139c0.003-6.413-0.343-12.83,0.194-19.239
				c0.121-0.471,0.339-0.893,0.647-1.266c14.384,0.01,28.769,0.111,43.149-0.042c2.896-0.031,3.603,0.781,3.489,3.567
				c-0.225,5.541,0.106,11.106-0.135,16.647c-0.128,2.951,0.9,3.585,3.657,3.514C553.273,470.332,559.834,470.509,566.394,470.545"
				/>
			<path clip-path="url(#SVGID_18_)" fill-rule="evenodd" clip-rule="evenodd" fill="#BF2229" d="M496.063,517.347
				c-4.272-1.534-8.69-0.578-13.032-0.655c-9.693-0.171-9.695-0.054-9.695-9.625c0-3.531,0.075-7.063-0.022-10.592
				c-0.067-2.456,1-3.359,3.398-3.33c6.684,0.083,13.366,0.033,20.051,0.037c0.163,0.166,0.326,0.331,0.493,0.495
				c1.333,3.522,0.641,7.191,0.674,10.789c0.1,11.014,0.037,10.942,11.21,11.054c3.71,0.037,7.521-0.76,11.132,0.831
				c0.362,0.345,0.623,0.754,0.793,1.224c0.846,6.658,0.372,13.338,0.282,20.008c-0.027,2.05-0.942,3.988-3.149,4.111
				c-7.13,0.399-14.293,1.204-21.382-0.509c-0.673-0.649-0.962-1.486-0.967-2.381C495.814,531.651,495.417,524.492,496.063,517.347"
				/>
			<path clip-path="url(#SVGID_18_)" fill-rule="evenodd" clip-rule="evenodd" fill="#EC3E28" d="M496.558,446.812
				c0.369,0.192-0.159-0.005,0.21,0.186c0.014,7.819,0.027,15.64,0.042,23.459c-15.658-0.004-31.317-0.009-46.974-0.013
				c0.046-6.555,0.269-13.114,0.062-19.661c-0.097-3.072,0.621-4.053,3.869-4c12.607,0.205,25.22,0.096,37.829,0.064
				C492.952,446.845,492.952,446.845,496.558,446.812"/>
			<path clip-path="url(#SVGID_18_)" fill-rule="evenodd" clip-rule="evenodd" fill="#E43629" d="M496.063,517.347
				c1.423,1.786,0.655,3.874,0.694,5.81c0.12,5.897,0.06,11.799,0.069,17.698c0.392,0.494,0.826,1.015,0.853,1.645
				c0.286,6.852,0.93,13.712-0.366,20.537c-0.164,0.181-0.331,0.359-0.495,0.539c-6.681,0.001-13.362-0.093-20.038,0.052
				c-2.569,0.056-3.587-0.658-3.498-3.384c0.181-5.539-0.027-11.09,0.087-16.633c0.056-2.639-1.012-3.58-3.589-3.529
				c-5.544,0.109-11.092-0.058-16.635,0.074c-2.384,0.057-3.398-0.596-3.325-3.167c0.159-5.541,0.141-11.092,0.007-16.634
				c-0.058-2.366,0.857-3.034,3.101-2.997c6.805,0.109,13.61,0.049,20.415,0.055c1.289,1.469,1.132,3.28,1.15,5.031
				c0.046,4.285,0.048,8.571,0.009,12.855c-0.022,2.508,0.959,3.693,3.569,3.651c4.409-0.071,8.823-0.071,13.231,0
				c2.601,0.042,3.609-1.115,3.584-3.639c-0.041-4.283-0.039-8.568,0.009-12.854c0.02-1.75-0.147-3.563,1.159-5.026L496.063,517.347
				z"/>
			<path clip-path="url(#SVGID_18_)" fill-rule="evenodd" clip-rule="evenodd" fill="#EC3E28" d="M543.16,563.791
				c-0.016,6.81-0.146,13.622,0.011,20.429c0.055,2.397-0.69,2.93-2.974,2.902c-9.962-0.123-19.928-0.101-29.891-0.011
				c-1.943,0.017-3.302-0.609-4.621-1.98c-2.885-2.993-5.917-5.845-8.889-8.756c0.007-4.266,0.013-8.532,0.021-12.799l-0.013,0.012
				c1.104-1.004,2.475-1.166,3.871-1.172c12.928-0.054,25.855-0.068,38.783,0.008c0.879,0.005,1.754,0.103,2.591,0.412
				C542.524,563.033,542.893,563.354,543.16,563.791"/>
			<path clip-path="url(#SVGID_18_)" fill-rule="evenodd" clip-rule="evenodd" fill="#E43629" d="M496.804,470.451
				c6.763,0.002,13.524,0.089,20.284-0.04c2.452-0.048,3.284,0.757,3.233,3.223c-0.135,6.509-0.045,13.021-0.043,19.533
				c0.232,0.532,0.073,0.882-0.479,1.056c-6.489,0.246-12.98,0.057-19.472,0.055c-1.263,0-2.498-0.19-3.486-1.105l-0.078,0.011
				C496.776,485.605,496.79,478.028,496.804,470.451"/>
			<path clip-path="url(#SVGID_18_)" fill-rule="evenodd" clip-rule="evenodd" fill="#F15638" d="M496.055,517.432
				c0.002,6.402-0.085,12.807,0.049,19.207c0.052,2.498-0.552,3.63-3.322,3.532c-5.392-0.188-10.799-0.192-16.191,0.001
				c-2.801,0.101-3.346-1.085-3.296-3.554c0.129-6.399,0.047-12.804,0.049-19.205C480.913,517.419,488.483,517.426,496.055,517.432"
				/>
			<path clip-path="url(#SVGID_18_)" fill-rule="evenodd" clip-rule="evenodd" fill="#EC3E28" d="M546.008,516.673
				c6.771-0.018,13.542-0.035,20.312-0.053c0.022,15.622,0.045,31.246,0.066,46.868c-7.548,0.012-15.093,0.022-22.638,0.034
				c-1.165-1.225-1.051-2.777-1.053-4.28c-0.022-12.585-0.009-25.172-0.018-37.758C542.678,519.06,542.888,516.887,546.008,516.673"
				/>
			<path clip-path="url(#SVGID_18_)" fill-rule="evenodd" clip-rule="evenodd" fill="#E33629" d="M546.008,516.673
				c-2.136,0.812-2.303,2.5-2.293,4.513c0.065,14.112,0.034,28.224,0.034,42.337c-0.149,0.195-0.345,0.286-0.589,0.269
				c-0.071-0.104-0.149-0.202-0.235-0.297c-1.387-1.593-1.106-3.552-1.111-5.41c-0.039-11.461,0.003-22.923-0.029-34.384
				c-0.015-4.861-0.251-5.067-5.142-5.104c-3.905-0.029-7.81,0.021-11.713-0.022c-1.636-0.02-3.303,0.019-4.638-1.193
				c-0.01-0.25-0.019-0.499-0.023-0.748c-0.597-0.677-0.989-1.467-1.03-2.364c-0.281-5.995-0.269-11.993-0.006-17.988
				c0.037-0.884,0.319-1.723,1.036-2.337c0.002-0.259,0.007-0.519,0.01-0.776c5.056,1.586,10.245,0.57,15.367,0.704
				c7.346,0.191,7.35,0.049,7.35,7.422c0,4.034,0.061,8.069-0.021,12.101C542.931,515.573,543.704,516.775,546.008,516.673"/>
			<path clip-path="url(#SVGID_18_)" fill-rule="evenodd" clip-rule="evenodd" fill="#CD2629" d="M520.292,517.381
				c6.428,0.004,12.86,0.112,19.286-0.038c2.614-0.061,3.494,0.743,3.469,3.418c-0.135,14.243-0.098,28.489-0.122,42.734
				c-15.373,0.03-30.747,0.062-46.119,0.093c0.007-7.577,0.014-15.156,0.021-22.733c6.525,0.003,13.053-0.102,19.575,0.056
				c2.971,0.073,3.987-1.022,3.923-3.954C520.179,530.434,520.287,523.906,520.292,517.381"/>
			<path clip-path="url(#SVGID_18_)" fill-rule="evenodd" clip-rule="evenodd" fill="#F15638" d="M520.269,493.943
				c0,7.562,0,15.126,0.001,22.69c-6.768,0.004-13.536-0.083-20.3,0.061c-2.475,0.052-3.261-0.767-3.208-3.223
				c0.147-6.765,0.068-13.532,0.078-20.3c6.363,0,12.725,0.006,19.087-0.003C517.425,493.167,518.931,493.068,520.269,493.943"/>
		</g>
		<path clip-path="url(#SVGID_14_)" fill="#FFFFFF" d="M443.199,501.253h5.855v28.781h-5.855V501.253z M449.054,507.009h5.855v5.757
			h-5.855V507.009z M454.909,512.765h5.854v5.756h-5.854V512.765z M460.764,518.521h5.856v5.756h-5.856V518.521z M466.619,501.253
			h5.855v28.781h-5.855V501.253z"/>
		<path clip-path="url(#SVGID_14_)" fill="#FFFFFF" d="M484.186,501.253h5.855v5.756h-5.855V501.253z M490.041,507.009h5.855v5.757
			h-5.855V507.009z M495.896,512.765h5.856v17.269h-5.856V512.765z M501.752,507.009h5.854v5.757h-5.854V507.009z M507.606,501.253
			h5.855v5.756h-5.855V501.253z"/>
		<path clip-path="url(#SVGID_14_)" fill="#FFFFFF" d="M531.028,524.277h-5.856v-17.269h5.856V524.277z M542.738,507.009h-11.71
			v-5.756h11.71V507.009z M542.738,530.034h-11.71v-5.757h11.71V530.034z M548.594,512.765h-5.855v-5.757h5.855V512.765z
			 M548.594,524.277h-5.855v-5.756h5.855V524.277z"/>
	</g>
</g>
<g>
	<g>
		<defs>
			<rect id="SVGID_19_" x="24.437" y="591.502" width="557.014" height="193.562"/>
		</defs>
		<clipPath id="SVGID_20_">
			<use xlink:href="#SVGID_19_"  overflow="visible"/>
		</clipPath>
		<polygon clip-path="url(#SVGID_20_)" fill="#FFFFFF" points="31.665,654.971 574.126,655.071 574.126,773.455 31.665,773.354 		
			"/>
		<g clip-path="url(#SVGID_20_)">
			<defs>
				<rect id="SVGID_21_" x="24.437" y="591.502" width="557.014" height="193.562"/>
			</defs>
			<clipPath id="SVGID_22_">
				<use xlink:href="#SVGID_21_"  overflow="visible"/>
			</clipPath>
			<polygon clip-path="url(#SVGID_22_)" fill="none" stroke="#676767" stroke-width="8.822" points="31.665,654.971 
				574.126,655.071 574.126,773.455 31.665,773.354 			"/>
		</g>
		<polygon clip-path="url(#SVGID_20_)" fill="#647BBC" points="294.091,667.643 561.22,667.744 561.22,760.792 294.091,760.691 		
			"/>
		<path clip-path="url(#SVGID_20_)" fill="#647BBC" d="M61.768,692.008h8.604v42.295h-8.604V692.008z M70.373,700.468h8.605v8.46
			h-8.605V700.468z M78.978,708.927h8.604v8.46h-8.604V708.927z M87.582,700.468h8.604v8.46h-8.604V700.468z M96.188,692.008h8.605
			v42.295h-8.605V692.008z"/>
		<path clip-path="url(#SVGID_20_)" fill="#647BBC" d="M122.208,734.304v-33.836h8.604v8.459h17.209v-8.459h8.604v33.836h-8.604
			v-16.917h-17.209v16.917H122.208z M130.812,700.468h17.209v-8.458h-17.209V700.468z"/>
		<path clip-path="url(#SVGID_20_)" fill="#647BBC" d="M173.629,734.304v-42.296h25.814v8.46h-17.21v25.377h17.21v8.459H173.629z
			 M208.048,725.845h-8.604v-25.377h8.604V725.845z"/>
		<polygon clip-path="url(#SVGID_20_)" fill="#647BBC" points="251.071,700.468 233.861,700.468 233.861,708.928 251.071,708.928 
			251.071,717.386 233.861,717.386 233.861,725.845 251.071,725.845 251.071,734.303 225.257,734.303 225.257,692.009 
			251.071,692.009 		"/>
		<rect x="319.909" y="692.008" clip-path="url(#SVGID_20_)" fill="#FFFFFF" width="8.604" height="42.295"/>
		<path clip-path="url(#SVGID_20_)" fill="#FFFFFF" d="M345.723,692.008h8.604v42.295h-8.604V692.008z M354.326,700.468h8.605v8.46
			h-8.605V700.468z M362.932,708.927h8.604v8.46h-8.604V708.927z M371.536,717.387h8.605v8.458h-8.605V717.387z M380.142,692.008
			h8.603v42.295h-8.603V692.008z"/>
		<g clip-path="url(#SVGID_20_)">
			<defs>
				<rect id="SVGID_23_" x="422.718" y="600.507" width="139.553" height="183.872"/>
			</defs>
			<clipPath id="SVGID_24_">
				<use xlink:href="#SVGID_23_"  overflow="visible"/>
			</clipPath>
			<path clip-path="url(#SVGID_24_)" fill-rule="evenodd" clip-rule="evenodd" fill="#6DBA46" d="M492.539,645.439
				c-7.884-3.857-16.252-6.509-24.551-9.186c-5.115-1.65-7.38-4.161-7.949-9.528c-0.818-7.737-2.483-15.392-3.968-23.046
				c-0.576-2.969-0.27-3.875,2.979-2.629c9.467,3.635,19.031,7.02,28.556,10.502c1.964,11.371,3.927,22.742,5.887,34.113
				c-0.002,0,0.236,0.146,0.236,0.146C493.192,646.134,492.832,645.898,492.539,645.439"/>
			<path clip-path="url(#SVGID_24_)" fill-rule="evenodd" clip-rule="evenodd" fill="#6DBA46" d="M492.599,645.562
				c6.551-2.524,13.404-4.054,20.204-5.609c4.193-0.959,6.175-2.8,7-7.04c1.193-6.107,3.055-12.093,4.771-18.089
				c0.665-2.326,0.485-3.069-2.193-2.304c-7.796,2.237-15.654,4.268-23.49,6.38c-2.355,8.925-4.713,17.851-7.067,26.775
				c0.001,0.001-0.199,0.102-0.199,0.102C492.029,646.07,492.333,645.906,492.599,645.562"/>
			<path clip-path="url(#SVGID_24_)" fill-rule="evenodd" clip-rule="evenodd" fill="#CC2729" d="M422.089,759.661
				c0-15.646,0.103-30.12,0.103-45.767c1.117-1.003,2.501-1.133,3.899-1.139c4.415-0.018,8.832-0.146,13.243,0.093
				c4.716,0.257,5.131-0.087,5.146-4.974c0.037-11.352,0-22.707,0.022-34.059c0.005-1.882-0.178-3.793,0.54-5.616
				c0.22-0.452,0.553-0.796,0.988-1.041c1.172-0.562,2.436-0.609,3.694-0.613c12.967-0.038,25.934-0.041,38.9,0.001
				c1.134,0.003,2.268,0.06,3.345,0.485c0.465,0.205,0.834,0.525,1.109,0.949c0.993,7.461,1.419,14.919-0.225,22.355
				c-1.42,1.364-3.24,1.192-4.979,1.219c-4.524,0.069-9.051,0.052-13.575,0.022c-2.867-0.019-4.082,1.234-4.032,4.097
				c0.075,4.272,0.122,8.551-0.019,12.82c-0.1,3.031,1.04,4.36,4.155,4.273c4.268-0.119,8.547-0.071,12.819-0.002
				c1.609,0.026,3.309-0.15,4.605,1.179c0.208,0.516,0.069,0.905-0.412,1.179c-3.747,1.333-7.625,0.552-11.441,0.671
				c-3.594,0.111-7.196,0.125-10.792-0.034c-6.033,0.15-12.072,0.119-18.105,0.026c-2.999-0.047-4.402,0.927-4.279,4.104
				c0.16,4.144,0.091,8.3,0.023,12.448c-0.045,2.707,1.107,3.874,3.82,3.854c4.525-0.034,9.056-0.093,13.582,0.031
				c4.858,0.135,5.948,1.242,6.052,6.123c0.092,4.275-0.016,8.553,0.039,12.828c0.054,4.121,0.363,4.413,4.594,4.473
				c4.905,0.07,9.812-0.082,14.714,0.087c1.011,0.035,2.003,0.215,2.863,0.818c2.248,3.89,1.048,8.056,0.972,12.131
				c-2.557,4.699-6.797,7.845-10.625,11.364c-0.746,0.685-1.851,0.677-2.87,0.619c-11.451-0.132-22.897,0.272-34.339-0.209
				c-1.255-1.328-1.103-3.019-1.127-4.631c-0.06-4.148,0.006-8.296-0.025-12.442c-0.051-6.553-0.245-6.51-5.306-6.538
				c-4.146-0.022-8.295,0.021-12.442-0.02C422.089,760.829,422.089,761.365,422.089,759.661"/>
			<path clip-path="url(#SVGID_24_)" fill-rule="evenodd" clip-rule="evenodd" fill="#EC3E28" d="M422.191,667.712
				c7.82-0.01,15.641-0.019,23.46-0.028c0.004,14.248-0.071,28.497,0.073,42.745c0.031,3.034-1.259,4.399-3.931,3.979
				c-6.532-1.03-13.076-0.161-19.603-0.513V667.712z"/>
			<path clip-path="url(#SVGID_24_)" fill-rule="evenodd" clip-rule="evenodd" fill="#F69E7F" d="M563.009,760.834
				c-0.276-0.03-0.552-0.061-0.83-0.09c-0.943-0.989-1.068-2.249-1.065-3.504c0.035-13.896-0.295-27.793,0.158-41.688
				c0.092-0.474,0.27-0.916,0.519-1.328c0.313-0.449,0.722-0.559,1.219-0.33V760.834z"/>
			<path clip-path="url(#SVGID_24_)" fill-rule="evenodd" clip-rule="evenodd" fill="#E08E75" d="M563.009,713.895
				c-0.221,0.02-0.441,0.031-0.663,0.032c-1.402-1.241-1.277-2.946-1.284-4.554c-0.053-12.438-0.051-24.875-0.003-37.313
				c0.006-1.498-0.017-3.042,1.127-4.259c0.275-0.029,0.549-0.06,0.823-0.09V713.895z"/>
			<path clip-path="url(#SVGID_24_)" fill-rule="evenodd" clip-rule="evenodd" fill="#CD2629" d="M562.186,667.801
				c0.052,15.376,0.106,30.75,0.159,46.126l-0.231-0.051c-1.168,1.197-2.702,1.176-4.183,1.179
				c-5.349,0.008-10.696,0.152-16.042-0.068c-3.167-0.295-4.159-2.365-4.229-5.191c-0.104-4.264-0.002-8.528-0.058-12.793
				c-0.056-4.35-0.312-4.598-4.772-4.641c-4.014-0.039-8.029,0.044-12.042-0.04c-1.878-0.039-3.812-0.036-5.122-1.773
				c-1.553-4.899-0.604-9.935-0.733-14.905c-0.174-6.744-0.046-6.746-6.827-6.752c-3.631-0.002-7.261,0.024-10.891-0.015
				c-1.627-0.018-3.282,0.018-4.618-1.169l0.006,0.006c-0.799-0.895-1.095-1.983-1.094-3.139c0.004-6.413-0.343-12.83,0.194-19.239
				c0.121-0.471,0.339-0.893,0.648-1.266c14.384,0.01,28.769,0.111,43.149-0.042c2.895-0.031,3.603,0.781,3.489,3.567
				c-0.225,5.541,0.105,11.106-0.136,16.647c-0.127,2.951,0.9,3.585,3.658,3.514C549.065,667.588,555.626,667.765,562.186,667.801"
				/>
			<path clip-path="url(#SVGID_24_)" fill-rule="evenodd" clip-rule="evenodd" fill="#BF2229" d="M491.856,714.603
				c-4.273-1.534-8.691-0.578-13.032-0.655c-9.694-0.171-9.696-0.054-9.696-9.625c0-3.531,0.076-7.063-0.021-10.592
				c-0.068-2.456,0.999-3.359,3.397-3.33c6.684,0.083,13.367,0.033,20.051,0.037c0.164,0.166,0.326,0.331,0.493,0.495
				c1.334,3.522,0.642,7.191,0.675,10.789c0.099,11.014,0.036,10.942,11.209,11.054c3.711,0.037,7.521-0.76,11.133,0.831
				c0.361,0.345,0.622,0.754,0.792,1.224c0.847,6.658,0.372,13.338,0.282,20.008c-0.027,2.05-0.942,3.988-3.149,4.111
				c-7.13,0.399-14.293,1.204-21.381-0.509c-0.674-0.649-0.963-1.486-0.968-2.381C491.607,728.907,491.209,721.748,491.856,714.603"
				/>
			<path clip-path="url(#SVGID_24_)" fill-rule="evenodd" clip-rule="evenodd" fill="#EC3E28" d="M492.351,644.068
				c0.369,0.192-0.16-0.006,0.209,0.186c0.015,7.819,0.027,15.64,0.043,23.459c-15.659-0.004-31.317-0.009-46.975-0.013
				c0.047-6.555,0.269-13.114,0.062-19.661c-0.096-3.072,0.622-4.053,3.869-4c12.607,0.205,25.221,0.096,37.83,0.064
				C488.744,644.101,488.744,644.101,492.351,644.068"/>
			<path clip-path="url(#SVGID_24_)" fill-rule="evenodd" clip-rule="evenodd" fill="#E43629" d="M491.856,714.603
				c1.422,1.786,0.654,3.874,0.694,5.81c0.119,5.897,0.06,11.799,0.068,17.698c0.393,0.494,0.826,1.015,0.853,1.645
				c0.286,6.852,0.93,13.712-0.366,20.537c-0.163,0.181-0.33,0.359-0.494,0.539c-6.681,0.001-13.362-0.093-20.038,0.052
				c-2.569,0.056-3.588-0.658-3.499-3.384c0.182-5.539-0.027-11.09,0.088-16.633c0.055-2.639-1.013-3.58-3.59-3.529
				c-5.543,0.109-11.092-0.058-16.634,0.074c-2.385,0.057-3.398-0.596-3.325-3.167c0.158-5.541,0.14-11.092,0.007-16.634
				c-0.058-2.366,0.857-3.034,3.101-2.997c6.804,0.109,13.609,0.049,20.415,0.055c1.289,1.469,1.131,3.28,1.15,5.031
				c0.045,4.285,0.047,8.571,0.008,12.855c-0.022,2.508,0.959,3.693,3.57,3.651c4.409-0.071,8.823-0.071,13.23,0
				c2.601,0.042,3.609-1.115,3.585-3.639c-0.042-4.283-0.04-8.568,0.009-12.854c0.02-1.75-0.147-3.563,1.158-5.026L491.856,714.603z
				"/>
			<path clip-path="url(#SVGID_24_)" fill-rule="evenodd" clip-rule="evenodd" fill="#EC3E28" d="M538.952,761.047
				c-0.015,6.81-0.146,13.622,0.012,20.429c0.055,2.397-0.69,2.93-2.975,2.902c-9.962-0.123-19.927-0.101-29.89-0.011
				c-1.943,0.017-3.302-0.609-4.622-1.98c-2.884-2.993-5.916-5.845-8.889-8.756c0.007-4.266,0.014-8.532,0.021-12.799l-0.013,0.012
				c1.104-1.004,2.475-1.166,3.871-1.172c12.928-0.054,25.854-0.068,38.782,0.008c0.88,0.005,1.754,0.103,2.592,0.412
				C538.316,760.289,538.685,760.609,538.952,761.047"/>
			<path clip-path="url(#SVGID_24_)" fill-rule="evenodd" clip-rule="evenodd" fill="#E43629" d="M492.596,667.707
				c6.763,0.002,13.525,0.089,20.284-0.04c2.452-0.048,3.284,0.757,3.233,3.223c-0.134,6.509-0.044,13.021-0.042,19.533
				c0.232,0.532,0.072,0.882-0.48,1.056c-6.488,0.246-12.979,0.057-19.472,0.055c-1.263,0-2.498-0.19-3.485-1.105l-0.079,0.011
				C492.568,682.861,492.583,675.284,492.596,667.707"/>
			<path clip-path="url(#SVGID_24_)" fill-rule="evenodd" clip-rule="evenodd" fill="#F15638" d="M491.847,714.688
				c0.002,6.402-0.085,12.807,0.05,19.207c0.052,2.498-0.552,3.63-3.323,3.532c-5.391-0.188-10.799-0.192-16.19,0.001
				c-2.802,0.101-3.347-1.085-3.296-3.554c0.128-6.399,0.046-12.804,0.049-19.205C476.706,714.675,484.275,714.682,491.847,714.688"
				/>
			<path clip-path="url(#SVGID_24_)" fill-rule="evenodd" clip-rule="evenodd" fill="#EC3E28" d="M541.801,713.929
				c6.77-0.018,13.542-0.035,20.312-0.053c0.022,15.622,0.044,31.246,0.065,46.868c-7.547,0.012-15.093,0.022-22.638,0.034
				c-1.165-1.225-1.051-2.777-1.053-4.28c-0.022-12.585-0.008-25.172-0.017-37.758C538.471,716.315,538.681,714.143,541.801,713.929
				"/>
			<path clip-path="url(#SVGID_24_)" fill-rule="evenodd" clip-rule="evenodd" fill="#E33629" d="M541.801,713.929
				c-2.137,0.812-2.303,2.5-2.293,4.513c0.064,14.112,0.033,28.224,0.033,42.337c-0.148,0.195-0.344,0.286-0.589,0.269
				c-0.071-0.104-0.149-0.202-0.235-0.297c-1.386-1.593-1.105-3.552-1.111-5.41c-0.039-11.461,0.004-22.923-0.029-34.384
				c-0.014-4.861-0.25-5.067-5.141-5.104c-3.905-0.029-7.811,0.021-11.714-0.022c-1.636-0.02-3.302,0.019-4.638-1.193
				c-0.009-0.25-0.018-0.499-0.023-0.748c-0.596-0.677-0.988-1.467-1.03-2.364c-0.28-5.995-0.269-11.993-0.006-17.988
				c0.038-0.884,0.319-1.723,1.036-2.337c0.003-0.259,0.008-0.519,0.011-0.776c5.055,1.586,10.244,0.57,15.366,0.704
				c7.347,0.191,7.351,0.049,7.351,7.422c0,4.034,0.061,8.069-0.021,12.101C538.723,712.829,539.496,714.031,541.801,713.929"/>
			<path clip-path="url(#SVGID_24_)" fill-rule="evenodd" clip-rule="evenodd" fill="#CD2629" d="M516.084,714.637
				c6.429,0.004,12.86,0.112,19.287-0.038c2.614-0.061,3.493,0.743,3.468,3.418c-0.134,14.243-0.098,28.489-0.122,42.734
				c-15.372,0.03-30.747,0.062-46.118,0.093c0.007-7.577,0.013-15.156,0.021-22.733c6.525,0.003,13.054-0.102,19.576,0.056
				c2.97,0.073,3.987-1.022,3.922-3.954C515.971,727.689,516.079,721.162,516.084,714.637"/>
			<path clip-path="url(#SVGID_24_)" fill-rule="evenodd" clip-rule="evenodd" fill="#F15638" d="M516.061,691.199
				c0,7.562,0,15.126,0.001,22.69c-6.768,0.004-13.536-0.083-20.299,0.061c-2.475,0.052-3.262-0.767-3.208-3.223
				c0.146-6.765,0.067-13.532,0.078-20.3c6.363,0,12.725,0.006,19.087-0.003C513.217,690.423,514.724,690.324,516.061,691.199"/>
		</g>
		<path clip-path="url(#SVGID_20_)" fill="#FFFFFF" d="M438.991,698.509h5.856v28.781h-5.856V698.509z M444.847,704.265h5.854v5.757
			h-5.854V704.265z M450.701,710.021h5.855v5.756h-5.855V710.021z M456.557,715.777h5.856v5.756h-5.856V715.777z M462.412,698.509
			h5.854v28.781h-5.854V698.509z"/>
		<path clip-path="url(#SVGID_20_)" fill="#FFFFFF" d="M479.978,698.509h5.855v5.756h-5.855V698.509z M485.833,704.265h5.856v5.757
			h-5.856V704.265z M491.689,710.021h5.855v17.269h-5.855V710.021z M497.544,704.265h5.855v5.757h-5.855V704.265z M503.399,698.509
			h5.855v5.756h-5.855V698.509z"/>
		<path clip-path="url(#SVGID_20_)" fill="#FFFFFF" d="M526.82,721.533h-5.855v-17.269h5.855V721.533z M538.531,704.265H526.82
			v-5.756h11.711V704.265z M538.531,727.29H526.82v-5.757h11.711V727.29z M544.386,710.021h-5.854v-5.757h5.854V710.021z
			 M544.386,721.533h-5.854v-5.756h5.854V721.533z"/>
	</g>
</g>
<g opacity="0.5">
	<g>
		<g>
			<g>
				<g>
					<rect x="597.898" y="199.391" width="0.137" height="0.057"/>
					<rect x="598.103" y="199.391" width="0.138" height="0.057"/>
					<rect x="598.307" y="199.391" width="0.138" height="0.057"/>
					<rect x="598.512" y="199.391" width="0.137" height="0.057"/>
					<rect x="598.716" y="199.391" width="0.138" height="0.057"/>
					<rect x="598.92" y="199.391" width="0.138" height="0.057"/>
					<rect x="599.125" y="199.391" width="0.137" height="0.057"/>
				</g>
			</g>
			<g>
				<g>
					<rect x="599.329" y="199.391" width="0.137" height="0.057"/>
					<rect x="599.533" y="199.391" width="0.138" height="0.057"/>
					<rect x="599.737" y="199.391" width="0.138" height="0.057"/>
					<rect x="599.942" y="199.391" width="0.137" height="0.057"/>
					<rect x="600.146" y="199.391" width="0.137" height="0.057"/>
					<rect x="600.351" y="199.391" width="0.138" height="0.057"/>
					<rect x="600.555" y="199.391" width="0.138" height="0.057"/>
				</g>
			</g>
			<g>
				<g>
					<rect x="600.76" y="199.391" width="0.137" height="0.057"/>
					<rect x="600.964" y="199.391" width="0.138" height="0.057"/>
					<rect x="601.168" y="199.391" width="0.138" height="0.057"/>
					<rect x="601.373" y="199.391" width="0.137" height="0.057"/>
					<rect x="601.577" y="199.391" width="0.137" height="0.057"/>
					<rect x="601.781" y="199.391" width="0.138" height="0.057"/>
					<rect x="601.985" y="199.391" width="0.138" height="0.057"/>
				</g>
			</g>
			<g>
				<g>
					<rect x="602.19" y="199.391" width="0.137" height="0.057"/>
					<rect x="602.395" y="199.391" width="0.137" height="0.057"/>
					<rect x="602.599" y="199.391" width="0.138" height="0.057"/>
					<rect x="602.803" y="199.391" width="0.138" height="0.057"/>
					<rect x="603.008" y="199.391" width="0.137" height="0.057"/>
					<rect x="603.212" y="199.391" width="0.137" height="0.057"/>
					<rect x="603.416" y="199.391" width="0.138" height="0.057"/>
				</g>
			</g>
			<g>
				<g>
					<rect x="603.62" y="199.391" width="0.138" height="0.057"/>
					<rect x="603.825" y="199.391" width="0.137" height="0.057"/>
					<rect x="604.029" y="199.391" width="0.137" height="0.057"/>
					<rect x="604.233" y="199.391" width="0.138" height="0.057"/>
					<rect x="604.438" y="199.391" width="0.138" height="0.057"/>
					<rect x="604.643" y="199.391" width="0.137" height="0.057"/>
					<rect x="604.847" y="199.391" width="0.138" height="0.057"/>
				</g>
			</g>
			<g>
				<g>
					<rect x="605.051" y="199.391" width="0.138" height="0.057"/>
					<rect x="605.256" y="199.391" width="0.137" height="0.057"/>
					<rect x="605.46" y="199.391" width="0.137" height="0.057"/>
					<rect x="605.664" y="199.391" width="0.138" height="0.057"/>
					<rect x="605.868" y="199.391" width="0.138" height="0.057"/>
					<rect x="606.073" y="199.391" width="0.137" height="0.057"/>
					<rect x="606.277" y="199.391" width="0.137" height="0.057"/>
				</g>
			</g>
			<g>
				<g>
					<rect x="606.481" y="199.391" width="0.138" height="0.057"/>
					<rect x="606.686" y="199.391" width="0.138" height="0.057"/>
					<rect x="606.891" y="199.391" width="0.137" height="0.057"/>
					<rect x="607.095" y="199.391" width="0.137" height="0.057"/>
					<rect x="607.299" y="199.391" width="0.138" height="0.057"/>
					<rect x="607.504" y="199.391" width="0.137" height="0.057"/>
					<rect x="607.708" y="199.391" width="0.137" height="0.057"/>
				</g>
			</g>
		</g>
	</g>
</g>
<g opacity="0.5">
	<g>
		<g>
			<g>
				<g>
					<rect x="2.01" y="397.139" width="0.168" height="0.062"/>
					<rect x="2.26" y="397.139" width="0.167" height="0.062"/>
					<rect x="2.509" y="397.139" width="0.168" height="0.062"/>
					<rect x="2.759" y="397.139" width="0.167" height="0.062"/>
					<rect x="3.009" y="397.139" width="0.168" height="0.062"/>
					<rect x="3.259" y="397.139" width="0.167" height="0.062"/>
					<rect x="3.509" y="397.139" width="0.167" height="0.062"/>
				</g>
			</g>
			<g>
				<g>
					<rect x="3.758" y="397.139" width="0.168" height="0.062"/>
					<rect x="4.008" y="397.139" width="0.167" height="0.062"/>
					<rect x="4.258" y="397.139" width="0.168" height="0.062"/>
					<rect x="4.508" y="397.139" width="0.167" height="0.062"/>
					<rect x="4.757" y="397.139" width="0.168" height="0.062"/>
					<rect x="5.007" y="397.139" width="0.168" height="0.062"/>
					<rect x="5.257" y="397.139" width="0.167" height="0.062"/>
				</g>
			</g>
			<g>
				<g>
					<rect x="5.507" y="397.139" width="0.168" height="0.062"/>
					<rect x="5.757" y="397.139" width="0.167" height="0.062"/>
					<rect x="6.006" y="397.139" width="0.168" height="0.062"/>
					<rect x="6.256" y="397.139" width="0.168" height="0.062"/>
					<rect x="6.506" y="397.139" width="0.167" height="0.062"/>
					<rect x="6.756" y="397.139" width="0.168" height="0.062"/>
					<rect x="7.006" y="397.139" width="0.167" height="0.062"/>
				</g>
			</g>
			<g>
				<g>
					<rect x="7.255" y="397.139" width="0.168" height="0.062"/>
					<rect x="7.505" y="397.139" width="0.168" height="0.062"/>
					<rect x="7.755" y="397.139" width="0.167" height="0.062"/>
					<rect x="8.005" y="397.139" width="0.168" height="0.062"/>
					<rect x="8.255" y="397.139" width="0.167" height="0.062"/>
					<rect x="8.504" y="397.139" width="0.168" height="0.062"/>
					<rect x="8.754" y="397.139" width="0.167" height="0.062"/>
				</g>
			</g>
			<g>
				<g>
					<rect x="9.004" y="397.139" width="0.167" height="0.062"/>
					<rect x="9.254" y="397.139" width="0.168" height="0.062"/>
					<rect x="9.504" y="397.139" width="0.167" height="0.062"/>
					<rect x="9.753" y="397.139" width="0.168" height="0.062"/>
					<rect x="10.003" y="397.139" width="0.167" height="0.062"/>
					<rect x="10.253" y="397.139" width="0.167" height="0.062"/>
					<rect x="10.503" y="397.139" width="0.168" height="0.062"/>
				</g>
			</g>
			<g>
				<g>
					<rect x="10.753" y="397.139" width="0.167" height="0.062"/>
					<rect x="11.002" y="397.139" width="0.168" height="0.062"/>
					<rect x="11.252" y="397.139" width="0.167" height="0.062"/>
					<rect x="11.502" y="397.139" width="0.167" height="0.062"/>
					<rect x="11.752" y="397.139" width="0.168" height="0.062"/>
					<rect x="12.002" y="397.139" width="0.167" height="0.062"/>
					<rect x="12.251" y="397.139" width="0.168" height="0.062"/>
				</g>
			</g>
			<g>
				<g>
					<rect x="12.501" y="397.139" width="0.167" height="0.062"/>
					<rect x="12.751" y="397.139" width="0.168" height="0.062"/>
					<rect x="13.001" y="397.139" width="0.167" height="0.062"/>
					<rect x="13.251" y="397.139" width="0.167" height="0.062"/>
					<rect x="13.5" y="397.139" width="0.168" height="0.062"/>
					<rect x="13.75" y="397.139" width="0.167" height="0.062"/>
					<rect x="14" y="397.139" width="0.168" height="0.062"/>
				</g>
			</g>
		</g>
	</g>
</g>
<g opacity="0.5">
	<g>
		<g>
			<g>
				<g>
					<rect x="596.508" y="594.248" width="0.157" height="0.062"/>
					<rect x="596.742" y="594.248" width="0.157" height="0.062"/>
					<rect x="596.977" y="594.248" width="0.157" height="0.062"/>
					<rect x="597.211" y="594.248" width="0.157" height="0.062"/>
					<rect x="597.445" y="594.248" width="0.157" height="0.062"/>
					<rect x="597.68" y="594.248" width="0.157" height="0.062"/>
					<rect x="597.914" y="594.248" width="0.157" height="0.062"/>
				</g>
			</g>
			<g>
				<g>
					<rect x="598.148" y="594.248" width="0.157" height="0.062"/>
					<rect x="598.383" y="594.248" width="0.157" height="0.062"/>
					<rect x="598.617" y="594.248" width="0.157" height="0.062"/>
					<rect x="598.852" y="594.248" width="0.157" height="0.062"/>
					<rect x="599.086" y="594.248" width="0.157" height="0.062"/>
					<rect x="599.32" y="594.248" width="0.157" height="0.062"/>
					<rect x="599.555" y="594.248" width="0.157" height="0.062"/>
				</g>
			</g>
			<g>
				<g>
					<rect x="599.789" y="594.248" width="0.157" height="0.062"/>
					<rect x="600.023" y="594.248" width="0.157" height="0.062"/>
					<rect x="600.258" y="594.248" width="0.157" height="0.062"/>
					<rect x="600.492" y="594.248" width="0.157" height="0.062"/>
					<rect x="600.727" y="594.248" width="0.157" height="0.062"/>
					<rect x="600.961" y="594.248" width="0.157" height="0.062"/>
					<rect x="601.195" y="594.248" width="0.157" height="0.062"/>
				</g>
			</g>
			<g>
				<g>
					<rect x="601.43" y="594.248" width="0.157" height="0.062"/>
					<rect x="601.664" y="594.248" width="0.157" height="0.062"/>
					<rect x="601.898" y="594.248" width="0.157" height="0.062"/>
					<rect x="602.133" y="594.248" width="0.157" height="0.062"/>
					<rect x="602.367" y="594.248" width="0.157" height="0.062"/>
					<rect x="602.602" y="594.248" width="0.157" height="0.062"/>
					<rect x="602.836" y="594.248" width="0.157" height="0.062"/>
				</g>
			</g>
			<g>
				<g>
					<rect x="603.07" y="594.248" width="0.157" height="0.062"/>
					<rect x="603.305" y="594.248" width="0.157" height="0.062"/>
					<rect x="603.539" y="594.248" width="0.157" height="0.062"/>
					<rect x="603.773" y="594.248" width="0.157" height="0.062"/>
					<rect x="604.008" y="594.248" width="0.157" height="0.062"/>
					<rect x="604.242" y="594.248" width="0.157" height="0.062"/>
					<rect x="604.477" y="594.248" width="0.157" height="0.062"/>
				</g>
			</g>
			<g>
				<g>
					<rect x="604.711" y="594.248" width="0.157" height="0.062"/>
					<rect x="604.945" y="594.248" width="0.157" height="0.062"/>
					<rect x="605.18" y="594.248" width="0.157" height="0.062"/>
					<rect x="605.414" y="594.248" width="0.157" height="0.062"/>
					<rect x="605.648" y="594.248" width="0.157" height="0.062"/>
					<rect x="605.883" y="594.248" width="0.157" height="0.062"/>
					<rect x="606.117" y="594.248" width="0.157" height="0.062"/>
				</g>
			</g>
			<g>
				<g>
					<rect x="606.352" y="594.248" width="0.157" height="0.062"/>
					<rect x="606.586" y="594.248" width="0.157" height="0.062"/>
					<rect x="606.82" y="594.248" width="0.157" height="0.062"/>
					<rect x="607.055" y="594.248" width="0.157" height="0.062"/>
					<rect x="607.289" y="594.248" width="0.157" height="0.062"/>
					<rect x="607.523" y="594.248" width="0.157" height="0.062"/>
					<rect x="607.758" y="594.248" width="0.157" height="0.062"/>
				</g>
			</g>
		</g>
	</g>
</g>
<g opacity="0.5">
	<g>
		<g>
			<g>
				<g>
					<rect x="2.789" y="199.389" width="0.163" height="0.062"/>
					<rect x="3.031" y="199.389" width="0.163" height="0.062"/>
					<rect x="3.274" y="199.389" width="0.163" height="0.062"/>
					<rect x="3.517" y="199.389" width="0.163" height="0.062"/>
					<rect x="3.759" y="199.389" width="0.163" height="0.062"/>
					<rect x="4.002" y="199.389" width="0.163" height="0.062"/>
					<rect x="4.245" y="199.389" width="0.163" height="0.062"/>
				</g>
			</g>
			<g>
				<g>
					<rect x="4.487" y="199.389" width="0.163" height="0.062"/>
					<rect x="4.73" y="199.389" width="0.163" height="0.062"/>
					<rect x="4.973" y="199.389" width="0.163" height="0.062"/>
					<rect x="5.215" y="199.389" width="0.163" height="0.062"/>
					<rect x="5.458" y="199.389" width="0.163" height="0.062"/>
					<rect x="5.701" y="199.389" width="0.163" height="0.062"/>
					<rect x="5.943" y="199.389" width="0.163" height="0.062"/>
				</g>
			</g>
			<g>
				<g>
					<rect x="6.186" y="199.389" width="0.163" height="0.062"/>
					<rect x="6.429" y="199.389" width="0.163" height="0.062"/>
					<rect x="6.671" y="199.389" width="0.163" height="0.062"/>
					<rect x="6.914" y="199.389" width="0.163" height="0.062"/>
					<rect x="7.157" y="199.389" width="0.163" height="0.062"/>
					<rect x="7.399" y="199.389" width="0.163" height="0.062"/>
					<rect x="7.642" y="199.389" width="0.163" height="0.062"/>
				</g>
			</g>
			<g>
				<g>
					<rect x="7.885" y="199.389" width="0.163" height="0.062"/>
					<rect x="8.127" y="199.389" width="0.163" height="0.062"/>
					<rect x="8.37" y="199.389" width="0.163" height="0.062"/>
					<rect x="8.613" y="199.389" width="0.163" height="0.062"/>
					<rect x="8.855" y="199.389" width="0.163" height="0.062"/>
					<rect x="9.099" y="199.389" width="0.163" height="0.062"/>
					<rect x="9.341" y="199.389" width="0.163" height="0.062"/>
				</g>
			</g>
			<g>
				<g>
					<rect x="9.584" y="199.389" width="0.163" height="0.062"/>
					<rect x="9.827" y="199.389" width="0.163" height="0.062"/>
					<rect x="10.069" y="199.389" width="0.163" height="0.062"/>
					<rect x="10.312" y="199.389" width="0.163" height="0.062"/>
					<rect x="10.555" y="199.389" width="0.163" height="0.062"/>
					<rect x="10.797" y="199.389" width="0.163" height="0.062"/>
					<rect x="11.04" y="199.389" width="0.163" height="0.062"/>
				</g>
			</g>
			<g>
				<g>
					<rect x="11.283" y="199.389" width="0.163" height="0.062"/>
					<rect x="11.525" y="199.389" width="0.163" height="0.062"/>
					<rect x="11.768" y="199.389" width="0.163" height="0.062"/>
					<rect x="12.011" y="199.389" width="0.163" height="0.062"/>
					<rect x="12.253" y="199.389" width="0.163" height="0.062"/>
					<rect x="12.496" y="199.389" width="0.163" height="0.062"/>
					<rect x="12.739" y="199.389" width="0.163" height="0.062"/>
				</g>
			</g>
			<g>
				<g>
					<rect x="12.981" y="199.389" width="0.163" height="0.062"/>
					<rect x="13.224" y="199.389" width="0.163" height="0.062"/>
					<rect x="13.467" y="199.389" width="0.163" height="0.062"/>
					<rect x="13.709" y="199.389" width="0.163" height="0.062"/>
					<rect x="13.952" y="199.389" width="0.163" height="0.062"/>
					<rect x="14.195" y="199.389" width="0.163" height="0.062"/>
					<rect x="14.438" y="199.389" width="0.163" height="0.062"/>
				</g>
			</g>
		</g>
	</g>
</g>
<g opacity="0.5">
	<g>
		<g>
			<g>
				<g>
					<rect x="597.759" y="397.143" width="0.145" height="0.055"/>
					<rect x="597.975" y="397.143" width="0.145" height="0.055"/>
					<rect x="598.19" y="397.143" width="0.145" height="0.055"/>
					<rect x="598.405" y="397.143" width="0.146" height="0.055"/>
					<rect x="598.621" y="397.143" width="0.145" height="0.055"/>
					<rect x="598.837" y="397.143" width="0.145" height="0.055"/>
					<rect x="599.053" y="397.143" width="0.145" height="0.055"/>
				</g>
			</g>
			<g>
				<g>
					<rect x="599.268" y="397.143" width="0.146" height="0.055"/>
					<rect x="599.483" y="397.143" width="0.146" height="0.055"/>
					<rect x="599.699" y="397.143" width="0.145" height="0.055"/>
					<rect x="599.915" y="397.143" width="0.145" height="0.055"/>
					<rect x="600.131" y="397.143" width="0.145" height="0.055"/>
					<rect x="600.346" y="397.143" width="0.146" height="0.055"/>
					<rect x="600.562" y="397.143" width="0.145" height="0.055"/>
				</g>
			</g>
			<g>
				<g>
					<rect x="600.777" y="397.143" width="0.145" height="0.055"/>
					<rect x="600.993" y="397.143" width="0.145" height="0.055"/>
					<rect x="601.209" y="397.143" width="0.145" height="0.055"/>
					<rect x="601.424" y="397.143" width="0.146" height="0.055"/>
					<rect x="601.64" y="397.143" width="0.145" height="0.055"/>
					<rect x="601.855" y="397.143" width="0.145" height="0.055"/>
					<rect x="602.071" y="397.143" width="0.145" height="0.055"/>
				</g>
			</g>
			<g>
				<g>
					<rect x="602.287" y="397.143" width="0.145" height="0.055"/>
					<rect x="602.502" y="397.143" width="0.145" height="0.055"/>
					<rect x="602.718" y="397.143" width="0.145" height="0.055"/>
					<rect x="602.934" y="397.143" width="0.145" height="0.055"/>
					<rect x="603.149" y="397.143" width="0.145" height="0.055"/>
					<rect x="603.364" y="397.143" width="0.146" height="0.055"/>
					<rect x="603.58" y="397.143" width="0.145" height="0.055"/>
				</g>
			</g>
			<g>
				<g>
					<rect x="603.796" y="397.143" width="0.145" height="0.055"/>
					<rect x="604.012" y="397.143" width="0.145" height="0.055"/>
					<rect x="604.228" y="397.143" width="0.145" height="0.055"/>
					<rect x="604.442" y="397.143" width="0.146" height="0.055"/>
					<rect x="604.658" y="397.143" width="0.145" height="0.055"/>
					<rect x="604.874" y="397.143" width="0.145" height="0.055"/>
					<rect x="605.09" y="397.143" width="0.145" height="0.055"/>
				</g>
			</g>
			<g>
				<g>
					<rect x="605.305" y="397.143" width="0.146" height="0.055"/>
					<rect x="605.521" y="397.143" width="0.146" height="0.055"/>
					<rect x="605.736" y="397.143" width="0.145" height="0.055"/>
					<rect x="605.952" y="397.143" width="0.145" height="0.055"/>
					<rect x="606.168" y="397.143" width="0.145" height="0.055"/>
					<rect x="606.383" y="397.143" width="0.146" height="0.055"/>
					<rect x="606.599" y="397.143" width="0.145" height="0.055"/>
				</g>
			</g>
		</g>
	</g>
</g>
<g opacity="0.5">
	<g>
		<g>
			<g>
				<g>
					<rect x="4" y="594.254" width="0.124" height="0.051"/>
					<rect x="4.185" y="594.254" width="0.124" height="0.051"/>
					<rect x="4.369" y="594.254" width="0.124" height="0.051"/>
					<rect x="4.554" y="594.254" width="0.124" height="0.051"/>
					<rect x="4.738" y="594.254" width="0.124" height="0.051"/>
					<rect x="4.923" y="594.254" width="0.124" height="0.051"/>
					<rect x="5.107" y="594.254" width="0.124" height="0.051"/>
				</g>
			</g>
			<g>
				<g>
					<rect x="5.292" y="594.254" width="0.124" height="0.051"/>
					<rect x="5.476" y="594.254" width="0.124" height="0.051"/>
					<rect x="5.661" y="594.254" width="0.124" height="0.051"/>
					<rect x="5.845" y="594.254" width="0.124" height="0.051"/>
					<rect x="6.03" y="594.254" width="0.124" height="0.051"/>
					<rect x="6.214" y="594.254" width="0.124" height="0.051"/>
					<rect x="6.399" y="594.254" width="0.124" height="0.051"/>
				</g>
			</g>
			<g>
				<g>
					<rect x="6.583" y="594.254" width="0.124" height="0.051"/>
					<rect x="6.768" y="594.254" width="0.124" height="0.051"/>
					<rect x="6.952" y="594.254" width="0.124" height="0.051"/>
					<rect x="7.137" y="594.254" width="0.124" height="0.051"/>
					<rect x="7.321" y="594.254" width="0.124" height="0.051"/>
					<rect x="7.506" y="594.254" width="0.124" height="0.051"/>
					<rect x="7.69" y="594.254" width="0.124" height="0.051"/>
				</g>
			</g>
			<g>
				<g>
					<rect x="7.875" y="594.254" width="0.124" height="0.051"/>
					<rect x="8.06" y="594.254" width="0.124" height="0.051"/>
					<rect x="8.244" y="594.254" width="0.124" height="0.051"/>
					<rect x="8.429" y="594.254" width="0.124" height="0.051"/>
					<rect x="8.613" y="594.254" width="0.124" height="0.051"/>
					<rect x="8.798" y="594.254" width="0.124" height="0.051"/>
					<rect x="8.982" y="594.254" width="0.124" height="0.051"/>
				</g>
			</g>
			<g>
				<g>
					<rect x="9.167" y="594.254" width="0.124" height="0.051"/>
					<rect x="9.351" y="594.254" width="0.124" height="0.051"/>
					<rect x="9.536" y="594.254" width="0.124" height="0.051"/>
					<rect x="9.72" y="594.254" width="0.124" height="0.051"/>
					<rect x="9.905" y="594.254" width="0.124" height="0.051"/>
					<rect x="10.089" y="594.254" width="0.124" height="0.051"/>
					<rect x="10.274" y="594.254" width="0.124" height="0.051"/>
				</g>
			</g>
			<g>
				<g>
					<rect x="10.458" y="594.254" width="0.124" height="0.051"/>
					<rect x="10.643" y="594.254" width="0.124" height="0.051"/>
					<rect x="10.827" y="594.254" width="0.124" height="0.051"/>
					<rect x="11.012" y="594.254" width="0.124" height="0.051"/>
					<rect x="11.196" y="594.254" width="0.124" height="0.051"/>
					<rect x="11.381" y="594.254" width="0.124" height="0.051"/>
					<rect x="11.565" y="594.254" width="0.124" height="0.051"/>
				</g>
			</g>
		</g>
	</g>
</g>
</svg>
